<?xml version="1.0" encoding="UTF-8"?>
<svg id="Layer_1" xmlns="http://www.w3.org/2000/svg" version="1.1" viewBox="0 0 539.75 554.42">
  <!-- Generator: Adobe Illustrator 29.4.0, SVG Export Plug-In . SVG Version: 2.1.0 Build 152)  -->
  <defs>
    <style>
      .st0 {
        fill: #039;
      }

      .st1 {
        fill: #a7a7a7;
      }

      .st2 {
        fill: #4cc1c2;
      }

      .st3 {
        fill: #e9e9e9;
      }

      .st4 {
        fill: #de0000;
      }

      .st5 {
        fill: #21b2b4;
      }

      .st6 {
        fill: #d5d6d6;
      }

      .st7 {
        isolation: isolate;
      }

      .st8 {
        fill: #18afb1;
      }

      .st9 {
        fill: #617abc;
      }

      .st10 {
        fill: #128587;
      }

      .st11 {
        fill: #817f7f;
      }

      .st12 {
        fill: #c1c1c1;
      }

      .st13 {
        fill: #949494;
      }
    </style>
  </defs>
  <g class="st7">
    <g>
      <path class="st8" d="M37.93,49.52c.42-.54.84-1.08,1.25-1.63.11-.13.21-.25.32-.38.12-.02.18-.1.16-.22l.13-.02-.03-.1c.45-.55.9-1.1,1.35-1.65.12-.14.23-.27.35-.41l.12-.16c.16,0,.23-.08.21-.24.89-1.02,1.78-2.04,2.68-3.06.12-.13.23-.25.35-.38l.12-.15c.1-.11.2-.22.31-.33.12,0,.18-.08.18-.2l.16-.04.03-.16c.1-.19.2-.39.31-.58.13-.08.18-.2.17-.35,2.04-1.89,4.09-3.79,6.13-5.68l.16-.03.05-.16c.12,0,.19-.05.19-.17.11-.1.22-.21.33-.31l.14-.13c.13-.12.25-.23.38-.35,1.02-.9,2.04-1.8,3.07-2.7l.16-.02.05-.16c.11.02.17-.03.18-.14.13-.11.26-.22.38-.33.7-.58,1.4-1.16,2.1-1.73.15.03.23-.04.24-.19l.16-.11c.14-.12.28-.24.42-.36,1.17-.9,2.34-1.8,3.51-2.71.15.03.23-.03.25-.19l.14-.09c.15-.12.3-.25.46-.37.86-.62,1.72-1.24,2.57-1.85l.1.04.03-.12c.11.03.18-.02.21-.13.15-.11.3-.23.44-.34,1.66-1.09,3.31-2.18,4.97-3.27l.13.03.06-.14.16-.08c.17-.12.35-.24.52-.36.52-.31,1.04-.62,1.56-.92l.1.05.05-.13.17-.08c.18-.12.36-.24.53-.35,5.11-2.44,10.23-4.88,15.34-7.33.29-.13.59-.26.88-.39,1.46-.51,2.93-1.02,4.39-1.53.32-.12.64-.24.96-.36.16-.04.32-.07.48-.11.33-.12.65-.24.98-.36.32-.08.65-.15.97-.23.27-.1.55-.2.82-.3.2-.04.4-.08.6-.12.31-.11.62-.22.93-.32.16-.03.33-.06.49-.09.46-.14.91-.27,1.37-.41.18-.03.37-.07.55-.1.45-.13.91-.26,1.36-.38.19-.03.37-.06.56-.09.47-.12.94-.25,1.41-.37.34-.05.67-.11,1.01-.16.44-.11.89-.22,1.33-.34.36-.05.71-.11,1.07-.16.45-.11.9-.21,1.35-.32.34-.02.67-.04,1-.06.93-.15,1.87-.31,2.8-.46l.07-.08c.64-.12,1.28-.23,1.91-.35.49-.02.97-.03,1.46-.05,1.27-.14,2.54-.28,3.81-.43.33-.03.65-.06.98-.09,2.07-.13,4.14-.27,6.21-.4.34-.04.67-.07,1.01-.11.31.02.62.04.94.05.4.03.79.08,1.19.08,12.11,0,24.22,0,36.33-.04,4.3,0,8.6-.07,12.9-.11.71.04,1.43.11,2.14.11,8.04-.02,16.08-.04,24.12-.07,1.04.03,2.07.09,3.11.09h136.24c1.92,0,3.83-.06,5.75-.09,6.19,0,12.39,0,18.58-.02,7.37,0,14.74.02,22.12.03.64.04,1.27.09,1.91.13.36.14.72.39,1.08.39,3.51,0,7.03-.04,10.54-.07,1.4,0,2.81.02,4.21.03.33.02.66.05.99.07,1.43.13,2.86.26,4.3.4.18.02.35.04.53.06,1.26.15,2.53.31,3.79.46v.13c.65.12,1.32.24,1.98.36.28-.04.57-.08.85-.13.19.05.38.1.57.15.79.14,1.57.28,2.36.42.17.07.34.13.5.2.37.1.74.19,1.1.29.25-.04.5-.07.75-.11.18.09.37.19.55.28.36.1.72.19,1.07.29.26-.03.52-.05.78-.08.18.1.37.19.55.29.34.11.67.21,1.01.32,1.36.47,2.67,1.17,4.18.8.19.11.37.21.56.32.33.11.66.22.99.33.79.21,1.58.42,2.37.63.31.12.62.23.93.35.17.04.34.07.5.11.32.12.64.24.96.36.16.04.32.07.47.11.32.12.64.25.96.37.16.04.32.08.48.12.31.13.62.25.93.38,4.23,1.76,8.46,3.51,12.7,5.27l.66.21c5.65,3.12,11.24,6.33,16.31,10.35,2.91,2.31,5.67,4.8,8.49,7.22.06.06.12.12.18.19.19.17.38.34.57.51.07.12.16.22.29.28l.14.12c.12.12.24.24.37.36l.11.11c.13.12.25.25.38.37l.1.1c.13.13.26.25.39.38l.09.09c.13.13.26.26.39.39l.09.09c.13.13.26.26.39.39l.09.09c.13.13.26.26.39.39l.09.09c.13.13.25.26.38.39l.1.11c.12.12.24.25.36.37l.12.13c.07.13.17.23.3.3.08.14.16.28.23.41.17.19.34.37.51.56,1.47,1.55,3.03,3.02,4.39,4.67,10.42,12.6,18.5,26.57,24.04,41.95,2.88,7.99,4.42,16.3,5.16,24.76.37,4.21.62,8.43.93,12.64,0,.8,0,1.6.01,2.4v17.76c-.04.72-.1,1.43-.1,2.15,0,56.97-.01,113.93-.01,170.9,0,.72.06,1.43.09,2.15-.03,4.84-.09,9.69-.09,14.53,0,5.88.06,11.75.09,17.63-.03,3.96-.1,7.93-.09,11.89,0,5.15.07,10.31.11,15.46v13.92c0,.64-.01,1.28-.02,1.92-.57,7.45-.86,14.94-2.46,22.26-1.22,5.58-2.77,11.09-4.17,16.63-.08.3-.09.62-.13.93l-.16.42c-2.42,6.59-5.26,13-8.49,19.24-.11.17-.22.33-.33.5-.85,1.45-1.69,2.89-2.54,4.34-.12.17-.24.33-.36.5l-.09.17-.13.05.04.12c-.45.7-.91,1.4-1.36,2.1-.1.13-.2.26-.31.4-.22.34-.44.68-.66,1.02-.12.16-.24.31-.36.47l-.1.16-.15.06v.15c-1.23,1.66-2.47,3.31-3.7,4.97-.12.14-.24.28-.36.42l-.11.15c-.16.01-.22.09-.19.24-.58.7-1.16,1.41-1.73,2.11-.11.12-.22.25-.33.38-.11,0-.16.06-.14.18-.17.02-.26.12-.27.29-.14.03-.22.12-.23.27h-.11l.05.06c-.78.88-1.56,1.75-2.33,2.63-.13.13-.25.27-.38.4l-.09.11c-.12.12-.23.25-.35.37l-.13.15c-.11.11-.21.22-.32.33-.11,0-.17.05-.16.17-.1.1-.2.21-.3.31-.12,0-.18.07-.18.19-.16,0-.24.07-.25.23-1.38,1.37-2.75,2.74-4.13,4.1-.18,0-.27.1-.28.28l-.13.12-.39.36-.1.08c-.14.13-.28.26-.42.39l-.07.06c-.15.14-.29.28-.44.41-5.3,4.14-10.61,8.27-15.91,12.41-.51.33-1.02.66-1.53.99-.24.08-.48.16-.71.24-.84-.39-1.65-.94-2.54-1.13-6.13-1.32-12.27-2.64-18.43-3.79-4.21-.79-8.46-1.39-12.71-1.95-3.46-.45-6.95-.71-10.43-1.08-4.26-.45-8.52-.95-12.79-1.36-3.94-.38-7.9-.65-11.84-.97,2.39-.69,4.79-1.09,7.19-1.42,2.98-.42,5.98-.71,8.95-1.19,3.05-.49,6.08-1.14,9.12-1.71,8.15-1.51,16.18-3.46,23.99-6.26,3.02-1.08,5.91-2.43,8.47-4.38,1.88-1.43,3.39-3,3.29-5.73-.09-2.68-1.26-4.69-3.3-6.04-2.58-1.7-5.34-3.17-8.15-4.46-4.36-1.99-9.02-3.11-13.69-4.15-6.83-1.53-13.7-2.73-20.65-3.55-3-.36-6-.7-8.99-1.05-3.78-.44-7.56-.96-11.35-1.31-3.01-.28-6.04-.35-9.06-.54-2.38-.15-4.76-.32-7.14-.51-3.48-.28-6.96-.63-10.45-.88-2.94-.21-5.88-.34-8.82-.48-3.9-.18-7.8-.35-11.7-.49-4.86-.18-9.72-.36-14.58-.47-8.14-.19-16.27-.46-24.41-.47-78.43-.04-156.86-.03-235.29-.04-.56,0-1.12.03-1.68,0-1.04-.05-1.44.47-1.39,1.46.02.4,0,.8,0,1.2v53.99c-4.13-2.44-8.05-5.15-11.56-8.43-.07-.1-.16-.18-.27-.24l-.14-.11c-.14-.12-.27-.24-.41-.36-.71-.61-1.42-1.23-2.13-1.84l-.08-.07c-.15-.02-.24-.1-.27-.25-.08-.09-.16-.17-.25-.25-.13,0-.2-.06-.22-.19-.09-.12-.19-.22-.31-.3l-.12-.02-.04-.12c-.12-.11-.25-.23-.37-.34l-.11-.1c-.13-.12-.26-.25-.39-.37-4.41-3.56-7.92-7.96-11.48-12.3-6.02-7.35-11.07-15.36-15.53-23.74-.45-.84-.95-1.65-1.42-2.48-.06-.16-.16-.27-.31-.34-5.74-12.57-9.72-25.64-10.78-39.48-.43-5.57-.82-11.16-.82-16.75-.04-88.85-.11-177.7.07-266.55.05-23.75,6.02-46,19.27-66.01,1.19-1.8,2.41-3.57,3.61-5.36.12-.15.25-.3.37-.46l.09-.13c.16-.02.23-.1.19-.26v.04ZM310.76,363.02c.16.12.31.24.47.36,3.66,1.78,7.33,3.53,10.97,5.35,1.33.67,2.54,1.59,3.87,2.24,1.35.66,2.85,1.02,4.19,1.69,5.33,2.67,10.59,5.46,15.93,8.11,3.16,1.57,6.46,2.85,9.61,4.42,6.33,3.16,12.59,6.47,18.92,9.63,2.76,1.38,5.68,2.44,8.43,3.82,6.41,3.21,12.73,6.57,19.14,9.76,3.12,1.55,6.38,2.81,9.52,4.33,3.87,1.87,7.69,3.85,11.52,5.8,1.64.84,3.16.93,4.51-.55.11-.12.21-.24.32-.36-.1-.82-.2-1.65-.3-2.47-.11-.13-.22-.26-.33-.39-.05-.33-.11-.67-.16-1-.21-.63-.41-1.27-.62-1.9-.11-.19-.22-.37-.33-.56-.11-.13-.22-.25-.32-.38-.05-.34-.11-.67-.16-1.01-.2-.63-.41-1.26-.61-1.89-.11-.19-.23-.38-.34-.56-.11-.13-.21-.25-.32-.38-.06-.34-.11-.67-.17-1.01-.2-.63-.41-1.26-.61-1.89-.11-.19-.23-.37-.34-.56-.11-.13-.21-.25-.32-.38-.05-.34-.11-.67-.16-1.01-.21-.63-.41-1.26-.62-1.89-.11-.19-.22-.37-.33-.56-.11-.13-.22-.26-.33-.38-.05-.33-.11-.67-.16-1-.1-.67.31-1.51-.63-1.9-1.77-4.7-3.57-9.39-5.31-14.1-1.57-4.26-3.08-8.54-4.62-12.81-.02-.14-.07-.26-.16-.37l-1.76-4.9c-.02-.14-.07-.27-.16-.38-.75-2.12-1.49-4.23-2.24-6.35-.02-.13-.06-.25-.14-.36-1.08-2.99-2.13-5.99-3.25-8.97-.59-1.56-1.15-3.16-1.96-4.61-1.32-2.38-2.92-2.92-5.41-1.87-1.46.62-2.83,1.45-4.2,2.27-5.07,3.01-10.19,5.91-15.82,7.8l-.88.39-6.22,2.05-.97.34c-.81.2-1.62.4-2.42.6-.31.1-.61.2-.92.3-.34.06-.68.12-1.02.17-.47.12-.93.24-1.4.36-.32.05-.63.09-.95.14-.48.12-.97.23-1.45.35-.33.04-.66.08-.99.12l-1.4.31c-.5.05-1.01.11-1.51.16l-2.34.36c-.65.04-1.29.09-1.94.13-1.29.12-2.57.24-3.86.36v.18h-11.49v-.14c-.53-.14-1.05-.39-1.57-.39-8.5-.02-17.01-.02-25.51.02-.56,0-1.12.35-1.69.54.96,1.5,1.92,2.99,2.88,4.49.07.1.16.18.27.24l.14.1h.03ZM393.32,319.82l.15-.1c.09-.05.18-.11.25-.19.36-.26.73-.53,1.09-.79l.44-.36.15-.1c.09-.05.18-.11.25-.19.54-.42,1.08-.84,1.61-1.26.13-.11.26-.22.39-.34.01-.11.07-.16.18-.14.07-.05.14-.1.2-.16.7-.59,1.41-1.18,2.11-1.77l.39-.34.04-.11.12-.02c.13-.08.23-.18.32-.3.01-.12.08-.19.21-.18.07-.05.13-.1.18-.16l7.14-7.14.14-.17c0-.13.06-.2.18-.21.12-.09.22-.19.3-.32l.13-.15.35-.4c.57-.69,1.14-1.39,1.71-2.08.09-.07.17-.16.22-.27l.1-.14c.12-.15.24-.29.36-.44l.83-1.11c.05-.06.1-.13.14-.2v-.12l.12-.05c.12-.14.23-.29.35-.43,1.16-1.8,2.42-3.54,3.45-5.41,1.37-2.49,2.56-5.08,3.83-7.62.13-.14.26-.28.4-.41.36-.98.73-1.97,1.09-2.95.12-.14.23-.27.35-.41.1-.18.21-.36.31-.54.95-.38.54-1.23.64-1.9.05-.33.1-.67.15-1,.11-.14.22-.28.33-.42.05-.34.1-.68.15-1.02.11-.14.22-.28.32-.43.05-.34.09-.67.14-1.01.11-.15.22-.3.33-.46.21-.96.42-1.92.63-2.88.55-.12,1.04-.27.43-.93.02-.33.04-.66.06-.99.56-.12,1.03-.29.41-.93.28-1.21.58-2.41.84-3.62,1.99-9.06,3.37-18.23,3.68-27.48.29-8.61.05-17.24-.25-25.86-.34-9.99-1.89-19.85-3.91-29.63-1.41-6.81-3.53-13.42-6.7-19.64-.11-.12-.21-.24-.32-.35-1.58-2.98-3.01-6.06-4.79-8.92-2.14-3.43-4.58-6.67-6.89-10-.04-.12-.12-.21-.24-.27-1.4-1.61-2.81-3.21-4.21-4.82-.12-.12-.23-.24-.35-.37-1.31-1.32-2.62-2.64-3.94-3.95-.13-.12-.26-.24-.39-.36l-.13-.11c-.02-.18-.12-.28-.3-.29-.19-.17-.38-.34-.58-.51-.05-.07-.11-.13-.18-.18-1.05-1-2.1-2-3.14-3-.25-.12-.5-.25-.75-.37-1.83-1.47-3.65-2.94-5.48-4.4-.32-.12-.65-.25-.97-.37-.16,0-.31-.05-.44-.15-.33-.27-.66-.54-.99-.81-.17,0-.32-.05-.45-.15-.3-.28-.59-.55-.89-.83-1.84-1.1-3.64-2.3-5.55-3.29-2.1-1.09-4.4-1.81-6.42-3.01-4.22-2.49-8.79-4-13.47-5.25-.34-.12-.68-.23-1.03-.35v-.19c-.33-.12-.68-.23-1.03-.35l-.92-.18c-.32-.11-.64-.21-.97-.32-.32-.06-.64-.11-.95-.17-.32-.1-.64-.21-.96-.31l-.9.06c-.18-.03-.35-.05-.53-.08-.46-.12-.91-.23-1.37-.35-.34-.05-.67-.09-1.01-.14l-1.88-.39c-.32-.03-.65-.07-.97-.1l-1.9-.35c-.17-.07-.34-.15-.52-.23-.8-.12-1.6-.24-2.41-.36-.31.04-.61.07-.92.11-.8-.05-1.6-.09-2.4-.14-1.92-.13-3.84-.25-5.76-.38-.33-.06-.66-.11-.99-.17-.92-.13-1.85-.37-2.77-.37-20.51-.02-41.02-.02-61.52-.02-1.17,0-2.35-.05-3.52,0-1.38.07-2.75.23-4.13.35-.5.07-.99.14-1.49.2-.88-.03-1.75-.1-2.63-.1h-45.07c-.88,0-1.75.06-2.63.1-.34-.07-.68-.14-1.02-.2-2.07-.12-4.13-.24-6.2-.36-11,0-21.99-.02-32.99,0-.84,0-1.68.26-2.52.4-.17.07-.34.14-.52.21-.66.11-1.32.21-1.97.32-.46.05-.92.1-1.38.15-.49.11-.98.23-1.47.34-.31.05-.62.09-.93.14-.45.13-.91.25-1.36.38-.18.03-.37.07-.55.1-.33.11-.67.23-1,.34-8.11,2.16-14.94,6.42-20.55,12.66-.11.12-.22.23-.33.35-.11,0-.16.06-.14.17-.16,0-.25.09-.26.26-2.45,2.6-4.5,5.48-5.98,8.75-.11.14-.22.29-.33.43l-.14.06c-.12.13-.25.26-.37.38-.68,1.78-1.36,3.56-2.04,5.35-.11.13-.21.27-.32.4-.06.63-.13,1.26-.19,1.9-.06.15-.11.3-.17.46-.55,3.12-1.54,6.23-1.58,9.35-.1,8.42.21,16.85.36,25.28v1.44c-.03.87-.08,1.75-.08,2.62,0,14.43.02,28.86.04,43.29,0,5.82.03,11.63.04,17.45v3.84c-.03.8-.1,1.59-.1,2.39-.03,26.78-.04,53.57-.1,80.35-.06,27.82-.16,55.63-.24,83.45,0,1.14-.03,2.28,1.29,2.8.17.09.35.18.52.28.17.09.35.19.52.28.16,0,.32-.01.48-.02l-.02-.19c.29-.13.59-.27.88-.4,1.08-1.15,2.13-2.34,3.25-3.46,2.77-2.77,5.58-5.49,8.34-8.26,18.27-18.33,36.55-36.66,54.79-55.03,2.48-2.49,5.19-4.47,8.61-5.4l.96-.28c.63-.04,1.26-.09,1.89-.13,5.55.04,11.1.1,16.64.11,3.41,0,6.81-.06,10.22-.09.49.06.98.12,1.47.18.68.13,1.35.37,2.03.38,4.12.03,8.24,0,12.36,0,26.26,0,52.52,0,78.78-.02.92,0,1.84-.26,2.76-.4.16-.05.31-.1.47-.15l.51.06h5.17c.82-.11,1.65-.23,2.47-.34.17-.06.33-.11.5-.17.77.01,1.54.02,2.31.04.5-.11,1-.22,1.5-.33.34-.04.67-.07,1.01-.11l2.34-.36c.34-.04.67-.08,1.01-.12.62-.12,1.25-.24,1.87-.36.33-.04.65-.09.98-.13.47-.11.95-.23,1.42-.34l.98-.14,1.43-.36c.19-.03.37-.06.56-.09l1.36-.38c.19-.03.39-.07.58-.1.45-.13.9-.26,1.34-.39.18-.03.36-.07.55-.1l1.38-.42.21-.11h.23c.33-.11.66-.22,1-.34,1.12-.36,2.25-.71,3.37-1.07.32-.12.63-.25.95-.37.52-.18,1.04-.37,1.57-.55.27-.12.55-.24.82-.36,5-2.48,10.07-4.82,14.96-7.48,3.63-1.98,7.03-4.37,10.53-6.59.15-.12.31-.24.46-.36h0Z"/>
      <path class="st10" d="M71.35,496.34v-53.99c0-.4.02-.8,0-1.2-.05-.99.35-1.51,1.39-1.46.56.03,1.12,0,1.68,0,78.43,0,156.86,0,235.29.04,8.14,0,16.28.28,24.41.47,4.86.11,9.72.3,14.58.47,3.9.14,7.8.31,11.7.49,2.94.14,5.88.27,8.82.48,3.49.25,6.96.6,10.45.88,2.38.19,4.76.36,7.14.51,3.02.19,6.05.26,9.06.54,3.79.35,7.57.87,11.35,1.31,3,.35,6,.69,8.99,1.05,6.94.83,13.82,2.02,20.65,3.55,4.67,1.04,9.33,2.16,13.69,4.15,2.81,1.28,5.57,2.76,8.15,4.46,2.04,1.35,3.2,3.36,3.3,6.04.1,2.73-1.41,4.3-3.29,5.73-2.56,1.95-5.45,3.3-8.47,4.38-7.81,2.8-15.84,4.75-23.99,6.26-3.04.56-6.07,1.22-9.12,1.71-2.97.48-5.97.77-8.95,1.19-2.4.34-4.8.73-7.19,1.42,3.95.32,7.9.6,11.84.97,4.27.41,8.52.91,12.79,1.36,3.48.36,6.97.62,10.43,1.08,4.25.56,8.5,1.15,12.71,1.95,6.16,1.16,12.3,2.48,18.43,3.79.89.19,1.69.75,2.53,1.13-4.41,3.01-9.13,5.44-13.95,7.73-12.51,5.96-25.68,9.25-39.44,10.36-1.6.12-3.19.24-4.79.37-.98.04-1.95.09-2.93.13-.4-.03-.79-.09-1.19-.09-26.92.02-53.85.05-80.77.07-.32-.02-.64-.07-.95-.07-18.6.01-37.2.02-55.8.05-.61,0-1.23.2-1.84.31-.16,0-.3.05-.44.14-.12-.09-.24-.16-.37-.23.01-.12-.01-.24-.07-.35.13-1.19.86-1.79,2.18-1.81,19.01-.26,38.02.58,57.02-.52,3.41-.2,6.82-.51,10.18-1.07,1.75-.29,3.46-1.12,5.07-1.93,1.06-.54,1.11-1.35.19-2.11-.83-.68-1.86-1.26-2.9-1.51-3.71-.89-7.47-1.46-11.31-1.58-5.24-.17-10.48-.8-15.72-.85-14.15-.13-28.3-.05-42.45-.06-2.27,0-2.3-.02-2.3-2.22-.01-7.2-.01-14.39,0-21.59,0-2.06.04-2.1,2.19-2.09,9.57,0,19.12-.03,28.67-.9,4.37-.4,8.7-.87,12.92-2.04.95-.26,1.8-.95,2.63-1.55.64-.46.53-1.05.01-1.64-1.07-1.23-2.53-1.65-4.01-1.98-5.76-1.32-11.66-1.79-17.51-1.88-16.38-.25-32.77-.11-49.16-.11-2.13,0-2.13.04-2.17,2.12-.02.88,0,1.76,0,2.64-.01,14.23-.02,28.47-.03,42.7-.06.12-.08.25-.05.39l-.02.13c-.28-.03-.55-.07-.83-.1-.85-.11-1.71-.31-2.56-.31-14.91-.04-29.81-.06-44.72-.08-2.15,0-4.3.03-6.45.05-3.7-.04-7.4-.08-11.1-.13-.44-.12-.88-.33-1.32-.33-2.74-.01-5.49.02-8.23.04-6.23-.02-12.45-.05-18.68-.07-1.62-.02-3.23-.04-4.85-.06-.44-.12-.89-.34-1.33-.35-5.3-.04-10.6-.05-15.89-.07-3.17-.29-6.34-.52-9.5-.87-11.24-1.27-22.02-4.26-32.24-9.1-3.88-1.84-7.61-3.97-11.41-5.97-.05-.13-.1-.25-.13-.38h-.02Z"/>
      <path class="st12" d="M408.61,513.68c.98-.04,1.95-.09,2.93-.13,1.6-.12,3.19-.24,4.79-.37,13.76-1.1,26.93-4.4,39.44-10.36,4.82-2.3,9.54-4.72,13.95-7.73.24-.08.48-.16.72-.24.52.18,1.04.36,1.56.53,2.29.89,4.58,1.79,6.88,2.67,3.98,1.51,7.56,3.63,10.35,6.93.17.15.35.3.52.46,1.79-1.22,3.58-2.43,5.36-3.66.77-.53,1.52-1.1,2.28-1.65.56.01,1.12-.01,1.67.05,1.13.12,1.53.81,1.02,1.76-.15.27-.39.5-.6.74-2.5,2.66-4.98,5.34-7.52,7.96-.46.47-1.18.68-1.78,1.02.14-.78.48-1.58.39-2.33-.13-1.06-.57-2.07-.87-3.11-.76.32-1.52.63-2.28.95-.07.03-.13.1-.19.14-10.38,7.1-21.57,12.59-33.35,16.92-2.45.9-4.86,1.9-7.28,2.85l-.96.06c-.33.12-.66.25-.99.37-3.49.82-6.99,1.63-10.48,2.45-2.3.6-4.6,1.2-6.9,1.81-.94-.58-1.86-.68-2.78.05-2.76.19-5.52.33-8.27.61-1.07.11-2.1.54-3.15.82-1.81.03-3.62.06-5.43.09-29.89-.01-59.79-.02-89.68-.03-16.79,0-33.57-.02-50.36-.04.01-6.39.03-12.78.04-19.17.13-.08.28-.13.44-.13.96.04,1.91.12,2.87.12,18.55,0,37.1-.02,55.65-.04.16,0,.32.03.48.03,26.59,0,53.18,0,79.76-.02.6,0,1.2-.24,1.81-.38h-.04Z"/>
      <path class="st3" d="M458.55,544.32c-.48.17-.95.33-1.43.5-.32.15-.64.31-.97.46-3.31,1.09-6.6,2.22-9.93,3.26-2.42.75-4.89,1.37-7.33,2.05-.32.15-.65.3-.97.45-1.12.17-2.23.33-3.35.5h-.96c-.48.16-.96.32-1.44.48h-.96c-.48.16-.96.32-1.44.48h-.96c-.64.16-1.28.32-1.92.48-.48.15-.96.3-1.45.45-.64,0-1.27.01-1.91.02-.64.16-1.29.31-1.93.47-.8,0-1.59,0-2.39.01-.96.15-1.93.31-2.89.46-1.6,0-3.19.02-4.79.03H127.96c-1.28,0-2.55-.01-3.83-.02-.8-.15-1.61-.31-2.41-.46-.8,0-1.59,0-2.39-.01-.64-.16-1.29-.31-1.93-.47-.64,0-1.27-.01-1.91-.02-.48-.15-.97-.3-1.45-.45-.48,0-.96-.01-1.43-.02-.48-.15-.96-.31-1.44-.46-.48,0-.96-.01-1.44-.02-.48-.16-.96-.31-1.44-.47-1.76-.33-3.51-.65-5.27-.98-.32-.15-.65-.3-.97-.45-1.44-.33-2.87-.66-4.31-.99-.32-.15-.64-.3-.97-.45-8.67-2.74-17.11-5.95-25.15-10.31-7.65-4.15-15.02-8.69-21.86-14.04-5.77-4.52-11.33-9.34-16.27-14.77-6.49-7.13-12.34-14.76-17.28-23.08-5.28-8.9-9.39-18.3-12.43-28.15-1.57-5.07-2.57-10.32-3.76-15.5-.1-.42.3-.96.47-1.44.42.15.91.21,1.23.47,1.95,1.6,3.31,3.61,4.31,5.94,1.22,2.85,2.57,5.65,3.98,8.4,1.16,2.26,2.4,4.49,3.79,6.61,3.64,5.6,7.13,11.31,11.69,16.25,3.35,3.63,6.66,7.29,10,10.93.48.53.99,1.08,1.6,1.43,1,.58,1.44,1.44,1.63,2.5-2.1-.36-3.49-1.86-4.89-3.23-2.1-2.06-3.96-4.36-6.06-6.42-1.18-1.16-2.59-2.1-3.97-3.01-.8-.52-1.35-.15-1.41.85-.1,1.74.37,3.32,1.34,4.74.81,1.18,1.74,2.27,2.57,3.43,3.62,5.06,7.77,9.67,12.09,14.11,3.11,3.2,6.51,6.1,9.65,9.27,5.63,5.69,12.06,10.34,18.67,14.77,1.35.9,2.62,2.15,4.46,2.04.05,1.19.12,2.38.14,3.58.03,2.55.02,2.54,2.67,2.56,3.11.03,6.21.07,9.32.1.42.42.76,1.03,1.27,1.24,2.49,1.06,4.98,2.15,7.55,2.99,9.68,3.2,19.54,5.62,29.76,6.29,5,.33,9.99.9,14.99.91,86.08.06,172.17.05,258.25.04,7.65,0,15.27-.03,22.91-.86,5.78-.63,11.48-1.55,17.13-2.82,7.71-1.74,15.15-4.32,22.38-7.54,6.5-2.9,12.84-6.06,18.81-9.94,4.94-3.21,9.79-6.55,14.16-10.54,3.05-2.79,6.19-5.48,9.19-8.32,1.61-1.53,3.01-3.28,4.51-4.94,1.6-1.77,3.35-3.44,4.77-5.35,3.71-4.98,7.31-10.03,10.87-15.11,1.84-2.62,1.56-4.1-.86-6.12,1.44-2.64,2.85-5.3,4.34-7.91,2.07-3.65,4.19-7.27,6.31-10.88,1.32-2.25,2.68-4.47,4.02-6.7,1.79-2.96,3.58-5.91,5.61-9.26.17.92.3,1.42.35,1.92.66,7.04-1.28,13.59-3.93,19.96-1.84,4.41-3.65,8.86-5.82,13.11-4.35,8.52-9.35,16.64-15.25,24.22-5.03,6.46-10.64,12.35-16.65,17.8-6.77,6.15-14.08,11.72-22.19,16.06-5.38,2.88-10.84,5.61-16.27,8.4-.32.15-.64.31-.97.46v.03Z"/>
      <path class="st12" d="M239.78,513.96c.28.03.55.07.83.1,0,6.43.02,12.86.03,19.29-.72-.01-1.44-.03-2.16-.03h-75.47c-1.18-.01-2.37-.08-3.55-.02-1.39.07-2.77.25-4.16.38h-22.05l-3.39-.35c-1.81-.11-3.63-.15-5.44-.33-3.61-.35-7.21-.78-10.82-1.17-.65-.14-1.3-.29-1.96-.43-1.88.35-3.43-.99-5.23-1.01-.18-.12-.36-.23-.54-.35-.47-.04-.95-.09-1.42-.13-4.23-1.59-8.43-3.28-12.7-4.74-6.85-2.34-13.77-4.48-20.33-7.61l-.14-.16c.01-6.54.02-13.08.03-19.62.05-.35.11-.7.16-1.05,3.8,2,7.54,4.13,11.41,5.97,10.22,4.85,21,7.84,32.24,9.1,3.16.36,6.33.59,9.5.87.36.12.73.35,1.1.35,5.38.04,10.76.05,16.13.06,1.62.02,3.23.04,4.85.06.29.12.57.33.86.33,5.94.02,11.89.02,17.83.02,3.18,0,6.36.01,9.54.02,3.7.04,7.4.08,11.1.13.85.12,1.7.34,2.54.34,16.11.05,32.22.09,48.33.11.95,0,1.91-.08,2.86-.12h.02Z"/>
      <path class="st6" d="M519.01,477.11c2.42,2.02,2.69,3.5.86,6.12-3.57,5.08-7.17,10.14-10.87,15.11-1.42,1.91-3.17,3.57-4.77,5.35-1.49,1.65-2.89,3.41-4.51,4.94-3,2.84-6.14,5.53-9.19,8.32-4.36,4-9.21,7.34-14.16,10.54-5.97,3.87-12.31,7.04-18.81,9.94-7.23,3.22-14.67,5.8-22.38,7.54-5.65,1.27-11.35,2.19-17.13,2.82-7.64.83-15.26.86-22.91.86-86.08,0-172.17.01-258.25-.04-5,0-9.99-.58-14.99-.91-10.22-.67-20.08-3.09-29.76-6.29-2.57-.85-5.06-1.93-7.55-2.99-.51-.22-.85-.82-1.27-1.24,1.98-.02,3.95,0,5.93-.08.92-.03,1.83-.24,2.75-.37.29,0,.58-.01.86-.01.19.1.37.2.56.31.95.05,1.91.1,2.86.15.37.34.69.86,1.13,1,2.04.67,4.08,1.38,6.18,1.83,5.66,1.21,11.33,2.45,17.04,3.39,5,.83,10.05,1.59,15.11,1.82,8.05.37,16.12.41,24.17.45,46.22.22,92.44.21,138.66.07,25.09-.07,50.18.51,75.27-.38,12.37-.44,24.76.34,37.12-.54,2.06-.15,4.13-.25,6.17-.56,4.62-.71,9.27-1.35,13.83-2.37,5.04-1.12,10.06-2.42,14.95-4.05,4.3-1.44,8.39-3.47,12.59-5.22,6.66-2.77,12.74-6.58,18.8-10.43.61-.38.95-1.19,1.41-1.79,4.43-2.1,8.54-4.62,11.43-8.74.6-.33,1.32-.54,1.78-1.02,2.54-2.62,5.02-5.3,7.52-7.96.22-.23.46-.46.6-.74.5-.95.1-1.64-1.02-1.76-.55-.06-1.11-.03-1.67-.05,1.78-1.69,3.6-3.34,5.33-5.08,2.8-2.82,5.61-5.63,8.27-8.58,2.76-3.04,5.36-6.24,8.03-9.36h.03Z"/>
      <path class="st6" d="M71.2,530.93c-1.84.11-3.11-1.13-4.46-2.04-6.61-4.42-13.05-9.08-18.67-14.77-3.13-3.17-6.54-6.07-9.65-9.27-4.32-4.45-8.48-9.05-12.09-14.11-.83-1.16-1.76-2.25-2.57-3.43-.97-1.41-1.44-3-1.34-4.74.06-1,.61-1.37,1.41-.85,1.39.91,2.8,1.85,3.97,3.01,2.1,2.06,3.96,4.37,6.06,6.42,1.4,1.37,2.79,2.87,4.89,3.23,2.08,1.43,3.18,3.6,4.35,5.72-.55.32-1.15.58-1.64.98-1,.82-1.01,1.43-.11,2.4.27.29.58.54.89.8,1.93,1.65,3.88,3.29,5.8,4.95,1.63,1.4,3.17,2.9,4.86,4.22,3.76,2.93,7.53,5.84,11.39,8.63,2.17,1.57,4.32,3.22,6.94,4.04.05.3.11.6.16.9-.06,1.3-.12,2.6-.19,3.89v.02Z"/>
      <path class="st12" d="M71.23,526.13c-2.62-.82-4.77-2.47-6.94-4.04-3.86-2.79-7.64-5.7-11.39-8.63-1.69-1.32-3.24-2.82-4.86-4.22-1.93-1.66-3.87-3.3-5.8-4.95-.3-.26-.62-.51-.89-.8-.89-.97-.88-1.58.11-2.4.49-.4,1.09-.66,1.64-.98,1.39.91,2.83,1.76,4.18,2.74,6.85,4.98,13.99,9.5,21.46,13.48.2.11.46.11.69.17.63.3,1.25.6,1.88.89l.14.16c-.07,2.86-.14,5.72-.21,8.57h0Z"/>
      <path class="st2" d="M355.01.4c-1.92.03-3.83.09-5.75.09h-136.24c-1.04,0-2.07-.06-3.11-.09.04-.11.06-.21.06-.33,3.99-.02,7.99-.06,11.98-.06C265.48,0,309.01,0,352.55.03c.8,0,1.6.03,2.39.05,0,.11.03.22.06.33h0Z"/>
      <path class="st12" d="M183.65.35c-4.3.04-8.6.1-12.9.11-12.11.03-24.22.03-36.33.04-.4,0-.79-.05-1.19-.08.02-.13.05-.26.09-.38,15.9-.02,31.8-.03,47.7-.04.88,0,1.75.06,2.63.1v.25Z"/>
      <path class="st1" d="M183.65.35V.1c8.78,0,17.55-.02,26.33-.03,0,.11-.03.22-.06.33-8.04.02-16.08.05-24.12.07-.71,0-1.43-.07-2.14-.11h-.01Z"/>
      <path class="st6" d="M395.71.41c-7.37,0-14.74-.02-22.12-.03,0-.1,0-.19-.02-.28,7.01-.02,14.03-.05,21.04-.05.37,0,.73.24,1.1.36h0Z"/>
      <path class="st1" d="M373.57.1c.02.09.03.19.02.28-6.19,0-12.39,0-18.58.02-.04-.11-.06-.22-.06-.33,6.21,0,12.41.02,18.62.02h0Z"/>
      <path class="st2" d="M409.24.86c-3.51.03-7.03.07-10.54.07-.36,0-.72-.26-1.08-.39h11.5c.04.11.08.23.12.34v-.02Z"/>
      <path class="st12" d="M131.29.49c-2.07.13-4.14.27-6.21.4,2.07-.13,4.14-.27,6.21-.4Z"/>
      <path class="st12" d="M409.24.86c-.04-.11-.08-.22-.12-.34,1.44.12,2.89.24,4.33.37-1.4,0-2.81-.02-4.21-.03Z"/>
      <path class="st12" d="M418.74,1.36c-1.43-.13-2.86-.26-4.3-.4,1.43.13,2.86.26,4.3.4Z"/>
      <path class="st12" d="M124.11.98c-1.27.14-2.54.28-3.81.43,1.27-.14,2.54-.28,3.81-.43Z"/>
      <path class="st12" d="M423.06,1.89c-1.26-.15-2.53-.31-3.79-.46,1.26.15,2.53.31,3.79.46Z"/>
      <path class="st12" d="M116.85,1.88c-.93.15-1.87.31-2.8.46.93-.15,1.87-.31,2.8-.46Z"/>
      <path class="st12" d="M428.81,2.81c-.79-.14-1.57-.28-2.36-.42.79.14,1.57.28,2.36.42Z"/>
      <path class="st5" d="M425.04,2.37c-.66-.12-1.33-.24-1.99-.36.59,0,1.17,0,1.76-.02.07.13.15.25.23.37h0Z"/>
      <path class="st5" d="M432.79,3.77c-.36-.1-.72-.19-1.07-.29.3-.03.59-.06.89-.08.07.12.13.25.19.38h-.01Z"/>
      <path class="st5" d="M430.21,2.91c.08.13.15.25.21.39-.37-.1-.73-.19-1.1-.29.3-.03.59-.06.89-.1Z"/>
      <path class="st5" d="M448.47,8.17c-.31-.13-.62-.25-.93-.38.31.13.62.25.93.38Z"/>
      <path class="st5" d="M447.07,7.67c-.32-.12-.64-.25-.96-.37.32.12.64.25.96.37Z"/>
      <path class="st5" d="M445.63,7.19c-.32-.12-.64-.24-.96-.36.32.12.64.24.96.36Z"/>
      <path class="st5" d="M444.16,6.72c-.31-.12-.62-.23-.93-.35.31.12.62.23.93.35Z"/>
      <path class="st5" d="M440.86,5.74c-.33-.11-.66-.22-.99-.33.33.11.66.22.99.33Z"/>
      <path class="st5" d="M434.93,3.91c.06.13.13.26.2.38-.34-.11-.67-.21-1.01-.32.27-.02.54-.04.82-.07h-.01Z"/>
      <path class="st5" d="M25.92,444.51c.15.07.26.18.31.34-.1-.11-.21-.22-.31-.34Z"/>
      <path class="st5" d="M54.66,483.35c.13.12.26.25.39.37-.13-.12-.26-.25-.39-.37Z"/>
      <path class="st5" d="M55.16,483.83c.12.11.25.23.37.34-.12-.11-.25-.23-.37-.34Z"/>
      <path class="st5" d="M55.7,484.31c.12.08.23.18.31.3-.1-.1-.21-.2-.31-.3Z"/>
      <path class="st5" d="M56.23,484.8c.09.07.18.16.25.25-.16,0-.25-.09-.25-.25Z"/>
      <polygon class="st5" points="56.75 485.29 56.84 485.36 56.76 485.4 56.75 485.29"/>
      <path class="st5" d="M58.96,487.2c.14.12.27.24.41.36-.14-.12-.27-.24-.41-.36Z"/>
      <path class="st5" d="M59.51,487.67c.11.06.2.14.27.24-.17,0-.26-.07-.27-.24Z"/>
      <path class="st5" d="M487.67,32.19c-.12-.07-.22-.16-.29-.28.18,0,.28.1.29.28Z"/>
      <path class="st5" d="M488.17,32.67c-.12-.12-.24-.24-.37-.36.12.12.24.24.37.36Z"/>
      <path class="st5" d="M488.66,33.15c-.13-.12-.25-.25-.38-.37.13.12.25.25.38.37Z"/>
      <path class="st5" d="M489.15,33.63c-.13-.13-.26-.25-.39-.38.13.13.26.25.39.38Z"/>
      <path class="st5" d="M489.64,34.11c-.13-.13-.26-.26-.39-.39.13.13.26.26.39.39Z"/>
      <path class="st5" d="M490.11,34.59c-.13-.13-.26-.26-.39-.39.13.13.26.26.39.39Z"/>
      <path class="st5" d="M490.59,35.07c-.13-.13-.26-.26-.39-.39.13.13.26.26.39.39Z"/>
      <path class="st5" d="M491.06,35.55c-.13-.13-.25-.26-.38-.39.13.13.25.26.38.39Z"/>
      <path class="st5" d="M491.52,36.03c-.12-.12-.24-.25-.36-.37.12.12.24.25.36.37Z"/>
      <path class="st5" d="M491.94,36.46c-.13-.07-.23-.17-.3-.3.19.01.29.11.3.3Z"/>
      <path class="st5" d="M492.68,37.43c-.17-.19-.34-.37-.51-.56.17.19.34.37.51.56Z"/>
      <path class="st2" d="M247.91,341.34c.72-.03,1.43-.1,2.15-.1h77.77c.56,0,1.11.06,1.67.1-.92.14-1.84.4-2.76.4-26.26.02-52.52.02-78.78.02-.01-.14-.03-.28-.04-.42h0Z"/>
      <path class="st2" d="M331.88,108.4c-.63.04-1.27.11-1.9.11h-60.27c-.71,0-1.43-.07-2.14-.11,0-.13,0-.27.02-.4,20.51,0,41.02,0,61.52.02.92,0,1.85.24,2.77.37h0Z"/>
      <path class="st2" d="M200.92,108.4c-4.01.06-8.01.11-12.02.17-1.76,0-3.52,0-5.27,0-5.21-.04-10.42-.07-15.63-.11-.87,0-1.73-.03-2.6-.04.84-.14,1.68-.39,2.52-.4,11-.02,21.99,0,32.99,0,0,.13,0,.26,0,.39h0Z"/>
      <path class="st2" d="M336.21,358.01c-6.31.02-12.62.04-18.93.08-3.28.02-6.55.06-9.83.09.56-.19,1.12-.54,1.69-.54,8.5-.04,17.01-.04,25.51-.02.52,0,1.04.25,1.56.39h0Z"/>
      <path class="st3" d="M205.22,341.18c.6-.13,1.21-.37,1.81-.37,7.74-.02,15.49-.02,23.23.01.61,0,1.21.24,1.81.37-3.41.03-6.81.1-10.22.09-5.55-.01-11.1-.07-16.64-.11h.01Z"/>
      <path class="st5" d="M247.91,341.34c0,.14.02.28.04.42-4.12,0-8.24.03-12.36,0-.68,0-1.35-.25-2.03-.38,4.79-.01,9.57-.03,14.36-.04h-.01Z"/>
      <path class="st3" d="M347.7,358.16c-.36.14-.72.38-1.08.39-3.11.03-6.21.03-9.32,0-.36,0-.72-.25-1.08-.39h11.48,0Z"/>
      <path class="st5" d="M267.59,108.01c0,.13-.01.26-.02.4-2.54,0-5.09-.03-7.63-.04,1.38-.12,2.75-.28,4.13-.35,1.17-.06,2.35,0,3.52,0h0Z"/>
      <path class="st5" d="M200.92,108.4c0-.13,0-.26,0-.39,2.07.12,4.13.24,6.2.36-2.06,0-4.12.02-6.18.03h-.01Z"/>
      <path class="st12" d="M330.53,340.88h5.26c-.05.13-.1.25-.16.37h-5.17c.01-.12.03-.25.07-.37Z"/>
      <path class="st5" d="M351.57,357.62c-1.29.12-2.57.24-3.86.36,1.29-.12,2.57-.24,3.86-.36Z"/>
      <path class="st5" d="M427.38,413.75c-.6-.5-.97-1.08-.62-1.9.21.63.41,1.27.62,1.9Z"/>
      <path class="st5" d="M422.89,282.73c-.32-.81.04-1.4.64-1.9-.1.67.31,1.52-.64,1.9Z"/>
      <path class="st5" d="M423.06,402.22c-.6-.5-.97-1.08-.62-1.89.21.63.41,1.26.62,1.89Z"/>
      <path class="st5" d="M421.62,398.39c-.6-.5-.97-1.08-.63-1.9.94.39.53,1.23.63,1.9Z"/>
      <path class="st5" d="M424.5,406.06c-.6-.5-.97-1.08-.61-1.89.2.63.41,1.26.61,1.89Z"/>
      <path class="st5" d="M425.94,409.9c-.6-.5-.97-1.08-.61-1.89.2.63.41,1.26.61,1.89Z"/>
      <path class="st12" d="M338.6,340.74c.82-.11,1.64-.22,2.46-.34-.05.13-.1.25-.15.37-.77-.01-1.54-.02-2.31-.04h0Z"/>
      <path class="st5" d="M343.42,340.33c.78-.12,1.56-.24,2.35-.36-.78.12-1.56.24-2.35.36Z"/>
      <path class="st5" d="M355.85,357.13l-2.34.36,2.34-.36Z"/>
      <path class="st5" d="M335.63,341.25c.06-.12.11-.24.16-.37.77,0,1.54.02,2.31.02-.82.11-1.65.23-2.47.34h0Z"/>
      <path class="st2" d="M344.36,109.34c-.72,0-1.44,0-2.15,0-.07-.13-.16-.25-.25-.37.8.12,1.6.24,2.41.36h-.01Z"/>
      <path class="st5" d="M346.78,339.85c.62-.12,1.25-.24,1.87-.36-.62.12-1.25.24-1.87.36Z"/>
      <path class="st5" d="M425.6,273.61c.14-.31.29-.62.43-.93.61.66.12.81-.43.93Z"/>
      <path class="st5" d="M426.09,271.7c.14-.31.27-.62.41-.93.62.64.15.81-.41.93Z"/>
      <path class="st5" d="M385.63,125.16c-.3-.28-.59-.55-.89-.83.3.28.59.55.89.83Z"/>
      <path class="st5" d="M387.07,126.11c-.33-.27-.66-.54-.99-.81.33.27.66.54.99.81Z"/>
      <path class="st5" d="M340.91,340.77c.05-.12.1-.25.15-.37.45.01.9.03,1.35.04-.5.11-1,.22-1.5.33Z"/>
      <path class="st5" d="M357.84,337.46c.46-.14.92-.28,1.38-.42-.46.14-.92.28-1.38.42Z"/>
      <path class="st5" d="M355.95,337.95c.45-.13.9-.26,1.34-.39-.45.13-.9.26-1.34.39Z"/>
      <path class="st5" d="M354.01,338.42c.45-.13.9-.25,1.36-.38-.45.13-.9.25-1.36.38Z"/>
      <path class="st5" d="M352.02,338.88c.48-.12.95-.24,1.43-.36-.48.12-.95.24-1.43.36Z"/>
      <path class="st5" d="M349.63,339.36c.47-.11.95-.23,1.42-.34-.47.11-.95.23-1.42.34Z"/>
      <path class="st5" d="M363.54,355.69c-.47.12-.93.24-1.4.36.47-.12.93-.24,1.4-.36Z"/>
      <path class="st5" d="M361.19,356.19c-.48.12-.97.23-1.45.35.48-.12.97-.23,1.45-.35Z"/>
      <path class="st5" d="M358.75,356.65c-.47.1-.93.21-1.4.31.47-.1.93-.21,1.4-.31Z"/>
      <path class="st5" d="M375.97,351.83c-.29.13-.59.26-.88.39.29-.13.59-.26.88-.39Z"/>
      <path class="st5" d="M368.86,354.27c-.32.11-.65.23-.97.34.32-.11.65-.23.97-.34Z"/>
      <path class="st5" d="M365.47,355.22c-.31.1-.61.2-.92.3.31-.1.61-.2.92-.3Z"/>
      <path class="st5" d="M394.72,131.41c-.25-.12-.5-.25-.75-.37.25.12.5.25.75.37Z"/>
      <path class="st5" d="M388.48,126.64c-.32-.12-.65-.25-.97-.37.32.12.65.25.97.37Z"/>
      <path class="st5" d="M358.29,112.23c-.35-.12-.69-.23-1.04-.35.35.12.69.23,1.04.35Z"/>
      <path class="st5" d="M356.33,111.71c-.32-.11-.64-.21-.97-.32.32.11.64.21.97.32Z"/>
      <path class="st5" d="M354.4,111.22c-.25.02-.5.05-.76.08-.06-.13-.13-.26-.2-.39.32.1.64.21.96.31h0Z"/>
      <path class="st5" d="M366.54,334.6c.27-.12.55-.24.82-.36-.27.12-.55.24-.82.36Z"/>
      <path class="st5" d="M364.02,335.52c.32-.12.63-.25.95-.37-.32.12-.63.25-.95.37Z"/>
      <path class="st5" d="M359.66,336.94c.33-.12.66-.23,1-.35-.33.12-.66.23-1,.35Z"/>
      <path class="st5" d="M398.04,134.59l-.18-.18c.07.05.13.11.18.18Z"/>
      <path class="st5" d="M408.16,145.27c-.08-.09-.16-.18-.24-.27.11.06.19.15.24.27Z"/>
      <path class="st5" d="M420.16,164.54c-.11-.12-.21-.24-.32-.35.11.12.21.24.32.35Z"/>
      <path class="st5" d="M424.64,276.95c.11-.15.22-.3.33-.46-.11.15-.22.3-.33.46Z"/>
      <path class="st5" d="M424.17,278.39c.11-.14.22-.28.32-.43-.11.14-.22.28-.32.43Z"/>
      <path class="st5" d="M423.69,279.83c.11-.14.22-.28.33-.42-.11.14-.22.28-.33.42Z"/>
      <path class="st5" d="M422.23,283.68l.35-.41c-.12.14-.23.27-.35.41Z"/>
      <path class="st5" d="M420.75,287.04c.13-.14.26-.28.4-.41-.13.14-.26.28-.4.41Z"/>
      <path class="st5" d="M413.12,300.51c.12-.14.23-.29.35-.43-.12.14-.23.29-.35.43Z"/>
      <path class="st5" d="M412.86,300.88v-.15l.14-.05c-.04.07-.09.13-.14.2h0Z"/>
      <path class="st5" d="M411.66,302.43c.12-.15.24-.29.36-.44-.12.15-.24.29-.36.44Z"/>
      <path class="st5" d="M411.34,302.84c-.02-.16.06-.25.22-.27-.06.11-.13.19-.22.27Z"/>
      <path class="st5" d="M409.28,305.31c.12-.13.23-.26.35-.4-.12.13-.23.26-.35.4Z"/>
      <path class="st5" d="M408.85,305.79c.1-.11.2-.22.3-.32-.08.13-.18.24-.3.32Z"/>
      <polygon class="st5" points="408.53 306.17 408.53 306.03 408.67 306 408.53 306.17"/>
      <path class="st5" d="M401.2,313.47l.04-.15h.15c-.06.05-.12.1-.19.15Z"/>
      <path class="st5" d="M400.68,313.95c.11-.1.21-.2.32-.3-.09.12-.19.22-.32.3Z"/>
      <path class="st5" d="M400.13,314.43c.13-.11.26-.23.39-.34-.13.11-.26.23-.39.34Z"/>
      <path class="st5" d="M397.82,316.35l.05-.15h.15c-.06.06-.13.11-.2.16h0Z"/>
      <path class="st5" d="M397.25,316.82c.13-.11.26-.22.39-.34-.13.11-.26.22-.39.34Z"/>
      <path class="st5" d="M395.39,318.27c.01-.16.09-.23.25-.19-.07.08-.15.15-.25.19Z"/>
      <path class="st5" d="M394.8,318.74c.15-.12.29-.24.44-.36-.15.12-.29.24-.44.36Z"/>
      <path class="st5" d="M393.46,319.71l.07-.17.18-.02c-.07.08-.15.14-.25.19Z"/>
      <path class="st5" d="M392.86,320.17c.15-.12.31-.24.46-.36-.15.12-.31.24-.46.36Z"/>
      <path class="st3" d="M330.53,340.88c-.03.12-.06.24-.07.37-.17-.02-.34-.04-.51-.06.19-.1.38-.21.57-.31h.01Z"/>
      <path class="st5" d="M406.74,357.58c-.17-.08-.22-.2-.14-.36.08.11.13.23.14.36Z"/>
      <path class="st5" d="M310.34,362.67c.17,0,.26.08.27.24-.11-.06-.2-.14-.27-.24Z"/>
      <path class="st5" d="M310.76,363.01c.16.12.31.24.47.36-.16-.12-.31-.24-.47-.36Z"/>
      <path class="st5" d="M409.14,364.31c-.18-.08-.23-.21-.16-.38.09.11.14.24.16.38Z"/>
      <path class="st5" d="M411.06,369.58c-.17-.08-.23-.2-.16-.37.09.11.14.23.16.37Z"/>
      <path class="st5" d="M422.11,399.77c-.11-.13-.22-.26-.33-.38.11.13.22.26.33.38Z"/>
      <path class="st5" d="M423.55,403.61c-.11-.13-.22-.25-.32-.38.11.13.21.25.32.38Z"/>
      <path class="st5" d="M424.99,407.45c-.11-.13-.21-.25-.32-.38.11.13.21.25.32.38Z"/>
      <path class="st5" d="M426.42,411.29c-.11-.13-.22-.25-.32-.38.11.13.22.25.32.38Z"/>
      <path class="st5" d="M126.06,414.35c.16,0,.32-.01.48-.02-.16,0-.32.01-.48.02Z"/>
      <path class="st5" d="M427.86,415.14c-.11-.13-.22-.26-.33-.39.11.13.22.26.33.39Z"/>
      <path class="st3" d="M427.84,417.98c.11-.12.21-.24.32-.36-.11.12-.21.24-.32.36Z"/>
      <path class="st8" d="M240.68,513.54c.01-14.23.02-28.47.03-42.7,0-.88-.01-1.76,0-2.64.04-2.09.04-2.12,2.17-2.12,16.39,0,32.78-.14,49.16.11,5.85.09,11.75.56,17.51,1.88,1.47.34,2.94.75,4.01,1.98.52.59.62,1.18-.01,1.64-.82.6-1.68,1.28-2.63,1.55-4.22,1.17-8.55,1.65-12.92,2.04-9.55.87-19.11.91-28.67.9-2.15,0-2.18.03-2.19,2.09-.02,7.2-.01,14.39,0,21.59,0,2.2.03,2.22,2.3,2.22,14.15.01,28.3-.07,42.45.06,5.24.05,10.48.68,15.72.85,3.84.12,7.6.69,11.31,1.58,1.03.25,2.07.83,2.9,1.51.92.76.87,1.57-.19,2.11-1.61.82-3.32,1.64-5.07,1.93-3.36.56-6.78.87-10.18,1.07-19,1.1-38.01.26-57.02.52-1.32.02-2.05.62-2.19,1.81-8.83,0-17.66.02-26.49.02h0Z"/>
      <path class="st1" d="M408.61,513.68c-.6.13-1.2.37-1.81.38-26.59.02-53.18.02-79.76.02-.16,0-.32-.02-.48-.03.03-.13.06-.25.09-.38,26.92-.03,53.85-.05,80.77-.07.4,0,.79.06,1.19.09h0Z"/>
      <path class="st2" d="M326.65,513.67c-.03.13-.06.25-.09.38-18.55.01-37.1.03-55.65.04-.96,0-1.91-.08-2.87-.12.61-.11,1.23-.31,1.84-.31,18.6-.03,37.2-.04,55.8-.05.32,0,.64.04.95.07h.02Z"/>
      <path class="st2" d="M239.78,513.96c-.95.04-1.91.12-2.86.12-16.11-.03-32.22-.06-48.33-.11-.85,0-1.7-.22-2.54-.34,2.15-.02,4.3-.05,6.45-.05,14.91.02,29.81.04,44.72.08.85,0,1.71.2,2.56.31h0Z"/>
      <path class="st2" d="M267.24,513.87c-.55.05-1.11.15-1.66.15-8.31-.02-16.63-.06-24.94-.09-.03-.13,0-.26.05-.39,8.83,0,17.66-.02,26.48-.02.06.11.09.23.07.35h0Z"/>
      <path class="st2" d="M165.41,513.48c-5.94,0-11.89,0-17.83-.02-.29,0-.57-.22-.86-.33,6.23.02,12.46.05,18.68.07,0,.09,0,.19,0,.28Z"/>
      <path class="st2" d="M141.87,513.07c-5.38-.02-10.76-.02-16.13-.06-.37,0-.73-.23-1.1-.35,5.3.02,10.6.02,15.9.07.45,0,.89.23,1.33.35h0Z"/>
      <path class="st5" d="M165.41,513.48c0-.09,0-.19,0-.28,2.74-.02,5.49-.05,8.23-.04.44,0,.88.22,1.32.33-3.18,0-6.36-.01-9.54-.02h0Z"/>
      <path class="st2" d="M416.33,513.18c-1.6.12-3.19.24-4.79.37,1.6-.12,3.19-.24,4.79-.37Z"/>
      <path class="st1" d="M427.24,531.77c2.3-.6,4.6-1.2,6.9-1.81.74.12,1.51.42,2.23.34,1.64-.18,3.27-.53,4.9-.84,5.66-1.06,11.32-2.13,16.99-3.19,2.17-.41,4.35-.79,6.52-1.18-.53.45-1.01.99-1.61,1.32-5.83,3.17-11.91,5.83-18.24,7.77-5.54,1.7-11.17,3.19-16.86,4.27-5.36,1.02-10.84,1.86-16.29,1.95-26.11.48-52.23-.36-78.34.49-16.03.52-32.09.26-48.13.39-34.02.29-68.06.62-102.08-.33-4.14-.12-8.27-.32-12.41-.46-5.34-.18-10.67-.31-16.01-.5-3.26-.12-6.52-.3-9.77-.46-6.36-.32-12.71-.65-19.07-.97-3.5-.17-6.99-.34-10.49-.49-.68-.03-1.3-.07-1.44-.91,1.04-.03,2.07-.07,3.11-.07h120.26c3.92,0,3.21.2,3.35-3.35,8.8.02,17.6.04,26.4.05.14.62.39,1.24.39,1.86,0,1.21.64,1.5,1.68,1.44.56-.03,1.12,0,1.68,0,16.05-.26,32.11.36,48.17-.37,11.88-.54,23.8.28,35.69-.5,6.68-.43,13.4-.36,20.1-.56,4.3-.13,8.6-.33,12.9-.5.16,0,.32-.02.48-.03,3.48-.3,6.97-.62,10.45-.89,2.78-.22,5.56-.36,8.34-.56.21-.02.4-.23.6-.36,1.81-.03,3.62-.06,5.43-.09,4,.24,7.94-.26,11.86-1.05.78-.15,1.56-.29,2.34-.44l-.03.03Z"/>
      <path class="st11" d="M407.61,533.34c-.2.12-.39.34-.6.36-2.78.2-5.56.35-8.34.56-3.49.27-6.97.59-10.45.89-.16.01-.32.03-.48.03-4.3.17-8.6.37-12.9.5-6.7.2-13.41.12-20.1.56-11.9.77-23.81-.04-35.69.5-16.06.73-32.12.11-48.17.37-.56,0-1.12-.03-1.68,0-1.04.06-1.68-.23-1.68-1.44,0-.62-.25-1.24-.39-1.86.13-.19.26-.37.39-.56l.05.02c16.79.01,33.57.03,50.36.04,29.89.01,59.79.02,89.68.03h0Z"/>
      <path class="st13" d="M490.17,511.65c-2.89,4.12-7,6.64-11.43,8.74-.52.15-1.05.3-1.56.47-3.28,1.06-6.42,2.64-9.93,2.9.18-.46.36-.92.56-1.43-3.1-.46-5.62.84-8.18,1.82-3.24,1.23-6.39,2.76-9.88,3.18-1.03.12-2.11-.16-3.17-.25,2.43-.95,4.84-1.95,7.28-2.85,11.78-4.33,22.98-9.82,33.35-16.92.07-.05.12-.11.19-.14.76-.32,1.52-.64,2.28-.95.31,1.03.75,2.05.87,3.11.09.75-.24,1.55-.39,2.33h.01Z"/>
      <path class="st11" d="M446.57,527.08c1.06.1,2.14.37,3.17.25,3.49-.42,6.64-1.95,9.88-3.18,2.57-.98,5.09-2.28,8.18-1.82-.2.51-.38.97-.57,1.42-.82.45-1.64.89-2.47,1.34-2.17.39-4.35.78-6.52,1.18-5.66,1.06-11.32,2.13-16.99,3.19-1.63.3-3.25.66-4.9.84-.72.08-1.48-.22-2.23-.34,3.49-.82,6.99-1.63,10.48-2.45.33-.12.66-.25.99-.37.32-.02.64-.04.96-.06h.02Z"/>
      <path class="st3" d="M424.9,532.21c-.15-.13-.29-.26-.44-.38.91-.73,1.84-.63,2.78-.05-.78.15-1.56.29-2.34.44h0Z"/>
      <path class="st13" d="M445.61,527.14c-.33.12-.66.25-.99.37.33-.12.66-.25.99-.37Z"/>
      <path class="st1" d="M71.2,530.93c.06-1.3.12-2.6.19-3.89,1.16.51,2.33.99,3.47,1.55,3.78,1.85,7.53,3.76,11.32,5.58,1.91.92,3.89,1.71,5.83,2.55-.92.13-1.83.33-2.75.37-1.97.07-3.95.06-5.93.08-3.11-.04-6.21-.08-9.32-.1-2.65-.02-2.64-.01-2.67-2.56-.02-1.19-.09-2.38-.14-3.58Z"/>
      <path class="st11" d="M240.74,533.76c-.13,3.56.57,3.35-3.35,3.35h-120.26c-1.04,0-2.07.05-3.11.07-1.91-.06-3.81-.11-5.72-.17-.17-.11-.34-.23-.51-.35-.18.12-.35.24-.53.37-1.08-.03-2.17-.06-3.25-.1-.28-.41-.48-1.05-.86-1.19-5.36-1.97-10.76-3.81-16.11-5.82-2.89-1.09-5.71-2.4-8.53-3.67-.36-.16-.55-.67-.83-1.01.39-.2.78-.55,1.17-.57,2.94-.14,5.88-.15,8.69.96,1.77.7,3.51,1.5,5.33,2.06,3.09.96,6.22,1.84,9.37,2.61.66.16,1.47-.26,2.2-.41.47.04.95.09,1.42.13.18.11.36.23.54.35,1.81.01,3.36,1.35,5.23,1.01.65.14,1.3.29,1.96.43,3.61.4,7.21.82,10.82,1.18,1.81.18,3.62.22,5.44.33,1.13.12,2.26.23,3.39.35h22.05c1.5.03,3,.11,4.5.06,1.07-.04,2.14-.27,3.21-.41h75.47c.72,0,1.44.02,2.16.03l.05-.02c-.01.15,0,.29.05.43h.01Z"/>
      <path class="st13" d="M104.46,529.9c-.74.15-1.54.58-2.2.41-3.15-.78-6.27-1.65-9.37-2.61-1.81-.56-3.56-1.36-5.33-2.06-2.81-1.11-5.75-1.1-8.69-.96-.4.02-.78.37-1.17.57.27.35.47.85.83,1.01,2.82,1.27,5.63,2.58,8.53,3.67,5.35,2,10.75,3.85,16.11,5.82.38.14.58.78.86,1.19-2.58.07-5.15.15-7.73.22-.95-.05-1.91-.1-2.86-.15-.19-.1-.37-.2-.56-.31-.29,0-.58,0-.86.01-1.95-.85-3.92-1.63-5.83-2.55-3.79-1.82-7.54-3.73-11.32-5.58-1.14-.56-2.31-1.04-3.47-1.55-.05-.3-.11-.6-.16-.9.07-2.86.14-5.72.2-8.57,6.56,3.13,13.48,5.26,20.33,7.61,4.27,1.46,8.47,3.15,12.7,4.74h0Z"/>
      <path class="st1" d="M163.01,533.32c-1.07.14-2.13.37-3.21.41-1.5.06-3-.03-4.5-.06,1.39-.13,2.77-.31,4.16-.38,1.18-.06,2.36.01,3.55.02h0Z"/>
      <path class="st1" d="M133.25,533.67c-1.13-.12-2.26-.23-3.39-.35,1.13.12,2.26.23,3.39.35Z"/>
      <path class="st13" d="M113.61,531.82c-.65-.14-1.3-.29-1.96-.43.65.14,1.3.29,1.96.43Z"/>
      <path class="st13" d="M106.42,530.38c-.18-.12-.36-.23-.54-.35.18.12.36.23.54.35Z"/>
      <path class="st12" d="M96.28,537.16c2.58-.07,5.15-.15,7.73-.22,1.08.03,2.17.06,3.25.09.19.02.38.04.57.06.16-.03.31-.05.47-.08,1.91.06,3.81.11,5.72.17.14.84.77.88,1.44.91,3.5.15,7,.31,10.49.49,6.36.32,12.71.65,19.07.97,3.26.16,6.51.35,9.77.46,5.33.19,10.67.32,16.01.5,4.14.14,8.27.34,12.41.46,34.02.95,68.06.62,102.08.33,16.04-.14,32.1.13,48.13-.39,26.12-.85,52.23-.02,78.34-.49,5.44-.1,10.92-.93,16.29-1.95,5.69-1.08,11.32-2.58,16.86-4.27,6.33-1.94,12.41-4.59,18.24-7.77.6-.33,1.08-.87,1.61-1.32.82-.45,1.64-.89,2.47-1.34,3.52-.26,6.65-1.84,9.93-2.9.52-.17,1.04-.31,1.56-.47-.46.61-.81,1.41-1.41,1.8-6.06,3.85-12.14,7.66-18.8,10.43-4.2,1.74-8.29,3.78-12.59,5.22-4.89,1.64-9.92,2.93-14.95,4.05-4.56,1.02-9.21,1.66-13.83,2.37-2.04.31-4.11.41-6.17.56-12.37.88-24.76.1-37.12.54-25.09.89-50.18.31-75.27.38-46.22.14-92.44.14-138.66-.07-8.05-.04-16.12-.07-24.17-.45-5.06-.24-10.11-1-15.11-1.82-5.71-.95-11.38-2.18-17.04-3.39-2.09-.45-4.14-1.16-6.18-1.83-.44-.15-.76-.66-1.13-1v-.03Z"/>
      <path class="st1" d="M92.87,536.7c.19.1.37.21.56.31-.19-.1-.37-.21-.56-.31Z"/>
      <path class="st0" d="M169.06,208.35c.06-.32.11-.64.17-.96.62-.13,1.55.23,1.47-.96.24-.19.59-.33.72-.58.76-1.47,2.25-1.73,3.58-2.27.15-.05.3-.1.45-.15.48.21.95.42,1.43.63.36.39.69.81,1.08,1.16.12.1.48.09.59-.02.11-.1.11-.45,0-.59-.16-.24-.44-.39-.67-.58-.05-.65-.1-1.29-.14-1.94-.11-.19-.22-.39-.33-.58.03-.11.04-.21.03-.33,1.79-.04,3.59-.05,5.38-.14,1.07-.05,2.13-.24,3.19-.36.67.04,1.02-.27,1.08-.94.07-.79.13-1.58.26-2.35.06-.35.28-.95.43-.95,1.48-.03,1.4-1.25,1.74-2.15.45-1.19,1.12-2.12,2.26-2.84.78-.5,1.59-1.47,1.74-2.34.2-1.17.88-1.74,1.62-2.41.63-.12,1.26-.24,1.88-.37.16-.05.32-.09.47-.13-.05,1.14.8.98,1.48.99,2.06.04,4.11.04,6.17.05.2.47.4.94.6,1.41.29.32.58.65.87.97.04,1.27.08,2.55.13,3.82.03.17.06.33.09.5.09.48.17.96.26,1.45.11.17.23.34.34.51.02.68.04,1.37.05,2.05-.26.42-.52.84-.78,1.26-.35.49-.69.98-1.04,1.48-.8.14-1.6.28-2.4.43-.32.03-.64.06-.96.1-1.3-.92-2.45-1.9-2.64-3.68-.08-.74-.6-1.43-.91-2.15-.11-.34-.23-.68-.34-1.02-.18-.41-.35-.82-.53-1.23-.13.4-.3.8-.35,1.21-.02.17.22.37.34.56l.08.48-.51.57c-.27.44-.54.87-.81,1.31-.04.15-.08.31-.13.46-.39.54-.71,1.15-1.17,1.61-1.35,1.35-.53,2.99-.6,4.5,0,.3.89.65,1.36.97.15-.4.37-.8.45-1.21.19-.97.31-1.95.46-2.93.34-.02.68-.03,1.02-.05.35,1.14.69,2.29,1.04,3.43-.03.64-.06,1.32.85,1.27.17,0,.31-.52.46-.8h0c.12-.16.23-.31.35-.47.05-.45.11-.89.16-1.34.62-.07,1.25-.14,1.87-.21.56.04,1.12.15,1.67.11,1.17-.09,2.22-.05,2.81,1.22.06.12.55.05.83.06.12-.11.25-.22.37-.33.68-1.62,1.4-3.21,2.64-4.53.24-.26.06-.89.14-1.35.05-.26.22-.5.34-.75.25.14.56.22.75.42,1.28,1.32,1.87,2.87,1.48,4.72-.31.18-.62.36-.93.54l-.04-.03c-.14-.11-.29-.22-.43-.32-.33-.02-.66-.04-.98-.06-.14.13-.28.26-.42.39.02.64.03,1.28.05,1.92l.86.86c1.06.29,1.27-.49,1.52-1.22,1.73-.06,3.47-.12,5.2-.18.64,0,1.28-.02,1.92-.02h.95c.32.05.63.08.95.12-.02.46-.04.92-.06,1.38-.18.34-.36.67-.54,1.01.35.99.73.41,1.11.02l-.02-.07c.82.28,1.64.56,2.46.83.29.02.59.04.88.06h.99c.32.04.63.07.95.11-.24.59-.47,1.17-.93,2.31.9-.56,1.41-.88,1.92-1.19.23-.22.47-.43.71-.65.03-.58.07-1.16.1-1.75-.08-.24-.16-.48-.23-.72-.09-.15-.19-.3-.28-.45-.11-.15-.21-.3-.32-.45-.01-.16-.03-.31-.04-.47-.05-.75-.35-1.79.8-1.8.96,0,.68,1.02.8,1.67.08.21.17.42.25.64.27.33.51.71.83.98.56.49,1.17.92,1.76,1.38.15.27.3.54.45.81.47.68.94,1.36,1.42,2.03l.41.53.02.02c.14.32.29.64.43.96.28.4.56.8.84,1.2.05.08.12.14.21.18.14.52.28,1.03.42,1.55.17-.03.34-.07.51-.1.07-.13.12-.27.14-.41.09-.2.17-.41.26-.61-.07-.31-.13-.61-.2-.92-.1-.63-.2-1.26-.3-1.89-.12-.15-.24-.3-.36-.45-.04-.14-.07-.28-.11-.41.04-.5.08-.99.12-1.49l.02-.02c.14-.18.27-.36.41-.54.01-.46.03-.92.04-1.38.57-.5.7-1,.01-1.51.29-.81.89-1.31,1.55-1.83.69-.55,1.19-1.33,1.78-2.01.08-.13.16-.26.24-.39.27-.97.5-1.93,1.48-2.5.31-.18.69-.57.69-.86-.02-.86.62-1.31,1.11-1.09.65.29,1.23,1.02.55,1.9-.9,0-.97.49-.49,1.03.26.3.8.36,1.22.52,1.01,1.44,1.16,1.47,1.95.36-.04-.31-.09-.62-.13-.93l.06-.03c.17.04.33.09.5.13.09.15.17.29.26.44.23.24.45.47.68.71-.09.72-.19,1.44-.28,2.17-.03.48-.06.96-.1,1.44-.27.22-.54.43-.8.64-.02.23-.12.49-.05.68.2.54.45,1.06.73,1.55.03.05.4-.1.61-.16-.14-.49-.28-.98-.43-1.47-.07-.22-.14-.44-.22-.66.05-.21.09-.42.14-.63h1.77c0-.08.06-.27-.01-.37-.26-.36-.57-.69-.86-1.03.34-.36.69-.72,1.03-1.08.15.13.29.26.44.39l-.02.17c.5.36,1,.72,1.51,1.08l.05.06c.02.13.1.2.22.23.38.2.76.39,1.13.59-.15.26-.48.6-.41.78.16.38.47.75.82.97.16.1.8-.21.8-.25-.15-.7.07-1.77-1.25-1.48-.08-.33-.16-.67-.24-1,.05-.72.14-1.43.14-2.15,0-.24-.2-.48-.3-.72-.2-.9.1-1.56.91-1.99,1.61-.11,3.29.65,4.83-.36v-.06c.27-.08.55-.17.84-.25-.28-.25-.55-.51-.83-.76,0-.14-.01-.27-.04-.41.57-.52,1.34-.93.97-1.92h0c.05-.17.1-.35.15-.52.02-.27.03-.54.05-.82.39-.22.79-.44,1.18-.66.04-.14.06-.27.06-.42.29-.16.59-.32.88-.48l.07-.07c.14-.13.29-.26.43-.4,1.26-.21,2.31-.74,2.9-1.95.48-.16.96-.32,1.44-.49h.02c.5,0,.99,0,1.49,0,.41.43.75.47.94-.19.15-.09.3-.19.44-.28.44-.21.88-.61,1.32-.61,2.91,0,5.83.11,8.74.1.64,0,1.27-.32,1.91-.5.08-.14.16-.27.24-.41.43.3.87.6,1.3.91h.13c.1.17.2.34.3.51.01.2.02.4.03.6l-.16.12.05.18c-.11.39-.23.78-.34,1.17-.75,1.33-2.16,2.33-2.05,4.1-.75,1.27-1.49,2.55-2.32,3.96.85-.25,2.69-1.45,2.69-1.82,0-.51-.25-1.01-.36-1.52-.05-.21-.02-.44-.03-.67,1.32.35,2.59.07,3.87-.26,0,.14.04.26.15.36.05.13.1.25.14.38.07-.12.14-.24.22-.37,1.24-1.14,2.72-1.58,4.38-1.53.91,1.36.98,1.38,2.88.64h0c.25-.19.51-.38.76-.58l.16-.05c.12-.13.25-.25.37-.38.02-.47.04-.93.06-1.4-.1-.19-.2-.38-.3-.57.08-.5.17-1,.25-1.51.51.03,1.02.07,1.52.1l.19-.03.08.17.11-.15c.35-.18.7-.36,1.06-.54.12-.14.25-.28.37-.42l.11-.09c.16.03.32.06.49.08v.03c.16.13.32.26.47.39.52.19,1.03.39,1.55.58.12.32.24.63.36.95.22.15.44.31.66.46l.09.15h.17c.08.59.15,1.18.23,1.77-.12.11-.24.22-.36.34.19.07.39.13.58.2.39.3.79.6,1.18.9.11.09.23.19.34.28l.02.14.14.03c.26.17.52.34.79.51.16-.02.33-.03.49-.05,1.55.02.82-.74.47-1.37l-.18-.99c-.09-.16-.19-.33-.28-.49,0-.48-.01-.97-.02-1.45.16,0,.31-.03.46-.1.22.04.44.08.66.11.04.14.13.2.28.18.84.61,1.4.58,1.45-.63.17-.39.33-.79.5-1.18.18-.02.29-.11.34-.28l.14-.05c.29-.14.59-.28.88-.42.32-.34.63-.69.95-1.03.47.07.94.14,1.41.22.94.11,1.87.31,2.8.31,12.04.02,24.08,0,36.13.04.82,0,1.64.3,2.46.47-.2.29-.39.58-.59.87l-.17-.05-.09.16c-.22.57-.44,1.13-.66,1.7-.15.04-.28.12-.37.25-.07.03-.2.05-.2.08,0,.13.03.26.05.4l.17-.07c.03.5.06.99.08,1.48.11.14.23.29.34.43l.18,1.5c.09.17.18.35.28.52.29,1.29.59,2.58.88,3.87l-.02.18.15.1.03.1c.1.31.2.61.3.92.22-.12.43-.25.65-.37l.17.05c.35,0,.7,0,1.06,0-.3.76-.6,1.52-.89,2.27-.2.16-.4.32-.6.48-.09.71-.19,1.42-.28,2.14-.08.09-.16.19-.24.28-.35.68-.29,1.84-1.62,1.35-.09-.14-.19-.28-.28-.42l-.18.03v-.76c-.19.06-.38.13-.58.19-.22.2-.44.41-.66.61-.28.27-.56.55-.84.82h-.17s-.07.15-.07.15l-.13.07-.38.38v.98c.11.18.22.37.33.55-.15.3-.3.6-.46.9-.28.15-.55.31-.83.46-.04.18-.07.36-.11.54-.11.14-.22.29-.33.43l-.13.02v.13c-.15.11-.3.21-.44.32l-.07.02c-.14.15-.28.3-.42.45-.18.35-.36.69-.54,1.04-.18.13-.35.26-.53.39-.15.08-.3.16-.46.24-.2,0-.29.08-.28.28l-.14.05-.02.15-.15.03.03.14c-.27.4-.54.8-.82,1.2-.17.27-.35.53-.52.8h0c-.16.17-.32.32-.48.48h0c-.13.16-.25.33-.38.49-.14,1.04-.53,2.11.32,3.05-.12.28-.25.56-.37.84-.09.21-.19.42-.28.63.25.93.5,1.85.75,2.78-.12.28-.24.56-.36.85-.08,1.6-.17,3.19-.25,4.79-.04.06-.13.15-.11.17.07.11.17.21.26.31-.19,1.92-.38,3.85-.57,5.77-.09.53-.18,1.05-.27,1.58-.05.22-.11.45-.16.67-1.04.02-2.08.05-3.11.05h-171.83c-1.11,0-2.23.08-3.34.12-.93-.74-.85-1.55-.17-2.4.08-.22.16-.44.24-.65v-.64c-.09-.21-.17-.42-.26-.63-.17-.49-.33-.99-.5-1.48.15-.15.3-.3.45-.45.17-.16.34-.33.51-.49.11-.15.22-.3.33-.44.23-1.23-.22-2.19-1.33-2.89-.3-.12-.61-.23-.91-.35l-.13-.12c-.12-.15-.24-.29-.37-.44l-.03-.05c-.04-.32-.07-.63-.11-.95.36-.52.73-1.04,1.09-1.55.09-.12.19-.24.28-.36.23-.2.46-.4.69-.6h.49c.62,0,.39,1.44,1.32.82.74-.49,1.16-1.12.22-1.86.08-.26.15-.51.23-.77.14-.47.29-.94.43-1.41.05-.19.1-.39.16-.58-.06-.85.3-1.42.95-2,1.29-1.15,1.26-1.44.5-3.23-.13-.65-.25-1.3-.38-1.95-1.13-.92-.15-1.88-.06-2.82.13-.02.25-.06.37-.12l.22-.44-.17.07c.07-.3.14-.6.21-.9.27-.18.53-.36.8-.55l-.02-.14c.11-.11.22-.23.34-.34l.02.03ZM247.07,203.08c.29-.16.57-.33.86-.49.14-.49.29-.97.43-1.46-.06-.25-.12-.5-.19-.75-.59-.67-1.07-.56-1.43.22-.08.18-.17.36-.25.53-.06.47-.13.94-.19,1.41-.54.56-1.09,1.11-1.63,1.67.28.25.56.5.85.74.04,1.2-.3,2.24-.84,3.36-.93,1.9-1.15,4.13-.87,6.16.15,1.11-.16,1.72-.58,2.5.18,1.26-1.01,1.73-1.5,2.6-.79,1.38-1.87,1.97-3.43,1.66-.27-.23-.54-.45-.8-.68,0,.31-.1.68.03.93.15.29.5.47.76.7.19.13.38.27.58.38.82.46,1.6.86,2.28-.28.16-.27.69-.45,1.04-.44.8.01,1.1-.43,1.36-1.07.2-.5.42-1.03.78-1.41.83-.86.92-1.79.56-2.85.38-1.68,1.6-2.04,3.09-1.94.03.32-.02.67.1.94.11.24.41.39.63.58,0-.33.12-.71-.01-.97-.12-.24-.49-.35-.75-.52-.5-.62-1.06-.69-1.88-.57-1.16.17-1.66-.49-1.4-1.57.3-1.22.47-2.58,1.13-3.58,1.01-1.52.39-2.64-.31-3.88.53-.64,1.07-1.27,1.6-1.91h-.02ZM249.32,217.34c-.14-.28-.24-.48-.34-.68-.14.14-.39.26-.41.41-.03.19.13.4.21.6.17-.11.33-.21.53-.34h.01Z"/>
      <path class="st4" d="M163.67,239.07c1.11-.04,2.23-.12,3.34-.12h171.83c1.04,0,2.08-.03,3.11-.05.58-.04,1.15-.07,1.73-.11.54.07,1.07.14,1.61.21.16.03.31.06.47.08h.01c.1.26.2.5.29.75.03-.26.07-.51.1-.77.39-.05.78-.1,1.18-.15.45,0,.91-.01,1.36-.02,2.89.05,5.77.1,8.66.15-.02.05-.08.11-.07.16.02.11.06.21.09.31-.13,1.86.66,3.34,1.7,4.83,1.31,1.88,2.42,3.9,3.56,5.9.22.38.19.92.22,1.39.11,2.05.2,4.11.3,6.16.11.18.23.36.34.54.92,3.28.42,6.63.44,9.95.01,2.22,0,4.43.01,6.65-.98.34-1.21,1.15-1.29,2.06-.03.19-.05.38-.08.56l-1.02,1.35c-.32.06-.63.12-.95.18-.17.1-.33.2-.5.3-1.51.11-2.38.69-2.45,2.43-.02.39.15,2.18-1.19,1.82-1.51-.41-.09-1.32-.06-2.03.04-.75.07-1.58-.21-2.24-.4-.93-.93-1.97-1.71-2.53-1.31-.94-.94-1.84-.66-3.08.22-.99.73-1.43,1.5-1.52,1.41-.17,1.36-.78,1.12-1.97-.48-2.33-.81-4.67-2.07-6.77-.2-.34.18-1,.04-1.43-.17-.53-.6-.97-.92-1.45-.4.29-1.07.52-1.16.88-.23.99-1.65,1.44-1.06,2.86.23.55-2.34,2.1-3.2,2.09-.71-.01-1.19-.25-1.37-1.03-.25-1.1-1-1.3-2.13-1.38-1.79-.12-3.48-.1-5.06.76-.85.46-1.3.04-1.83-.51-1.65-1.72-3.32-3.41-4.98-5.11-.59-.61-1.16-1.23-1.74-1.85-.19-.14-.37-.27-.56-.41-4.42-.31-7.7,1.37-9.18,4.73-.11.25-.22.49-.33.74.29.05.58.09.88.14,1.11.97,1.42,2.05,1.16,3.6-.31,1.88-1.06,3.89.19,5.77.08.11.09.35.02.47-.65,1.02-1.22,2.12-2.03,3-.42.45-1.29.68-1.95.68-1.12,0-2.19-.15-3.19.6-.27.2-.87,0-1.31-.06-1.12-.17-2.1.06-2.42,1.26-.43,1.59-1.49,2.52-2.87,3.22-.27.14-.62.25-.77.49-1.24,2-3.31,1.82-5.23,2.06-.93.12-1.62-.15-2.33-.84-1.27-1.24-5.13-1.46-6.69-.55-3.05,1.78-4.31,1.46-6.21-1.49-.31-.49-1-1.18-1.37-1.1-1.57.32-2.84-.65-4.28-.75-.4-.03-.95.03-1.19.28-1.46,1.56-1.54,2.82-.48,4.81.36.68.48,1.36-.32,1.86-.12.11-.23.21-.35.32-.26.29-.51.83-.79.84-2.3.12-4.7.82-6.63-1.27-1.34-1.44-3.66-1.59-5.19-.56-1.75,1.19-3.51,2.36-5.26,3.54-.14.1-.28.21-.43.31-.45.14-.93.24-1.35.44-1.72.81-1.68.8-3.01-.55-.24-.25-.81-.34-1.18-.26-1.5.31-2.01.04-2.72-1.27-.66-1.23-1.37-2.46-2.27-3.51-.37-.43-1.42-.74-1.92-.53-1.5.63-2.5-.02-3.54-.88-.25-.21-.76-.44-.95-.33-1.72,1.04-1.88-.48-2.15-1.4-.6-2.09-.85-4.29-1.57-6.34-.51-1.45-1.55-2.71-2.34-4.05-.2-.33-.39-.66-.59-1,.04-.17.07-.33.11-.5.27-.06.55-.13.82-.19-.19-.21-.39-.42-.58-.63-.09.27-.18.54-.27.81-.17.04-.35.08-.52.12-.55.2-1.09.45-1.66.6-1.03.27-2.06.56-3.11.72-1.06.16-1.04-.62-.99-1.36.27-.29.53-.58.8-.88-.27-.03-.54-.05-.81-.08-.63-.15-1.56.15-1.5-1.01-.14-.12-.28-.24-.42-.36-.91-.09-1.87-.15-1.3-1.52.33-.79.86-1.74-.04-2.34-1.09-.73-2.15-1.74-3.73-1.35-.9.22-1.85.27-2.78.27-2.51,0-5.04.2-7.51-.53-1.1-.32-2.24-.54-3.36-.8-.15.13-.29.26-.44.39.11.65.15,1.31.33,1.93.35,1.2-.17,1.54-1.26,1.4-.18-.54-.43-.92-1.02-.38-.41.9-.34,2.25-1.93,2.03-.12.1-.25.2-.37.3.29.48.57.96.86,1.44.18.81.36,1.62.54,2.43-.82.85-1.58,1-2.84.55-1.82-.65-3.16-1.46-3.52-3.45-.14-.12-.29-.24-.43-.37-.45-.07-1.11.03-1.32-.23-.64-.81-1.42-.94-2.32-.78-.89.16-1.46-.73-1.99-.81-1.6-.23-1.44-1.12-1.63-2.28-.21-1.22-.33-2.69-1.74-3.38-.52-.25-1-.58-1.52-.84-.26-.13-.66-.1-.83-.29-.31-.35-.21-1.53-.79-1.09-1.58,1.21-3.9-.66-5.15,1.4-.13.17-.27.33-.4.5-.72.75-1.3.76-1.55-.36-.12-.51-.08-1.05-.11-1.58,0-.12-.03-.24-.04-.36-.2.12-.41.25-.61.37-.83.65-2.04.82-2.36,2.13-.1.41-.74.8-1.21.99-.82.32-.61.72-.68,1.48-.2,2.07,1.39,3.53,1.36,5.55-.02,1.29-.73,2.17-.9,3.29,0,.32.02.65.02.97-.97.12-2.02.52-2.91.29-1.38-.37-2.4-.35-3.2.95-.12.19-.55.2-.83.29l-1.32.36c.27.19.55.39.82.58.23,1.32,0,2.55-.82,3.63-.86,1.15-1.24,2.38-.86,3.82.12.44,0,.95-.03,1.42-.12,2.06-.37,2.25-2.4,2.19-.79-.02-1.15-.32-1.27-1.08-.38-2.32-1.94-4.29-1.87-6.78.02-.56-.6-1.42-1.14-1.68-1.61-.75-1.84-2.36-2.6-3.63-1.32-2.19-2.62-4.4-3.93-6.6-.27-.46-.78-.94-.76-1.4.07-2.41-.62-4.64-1.23-6.93-.18-.69-1.02-2.33.86-2.67l.04.13.15-.03c.79.99,1.55-.08,2.32-.03,1.14.08,1.22-.55,1.18-1.45,0-.18.54-.39.84-.58.54.19,1.07.38,1.61.57l.13.13c.33.01.67.03,1,.04-.24-.12-.47-.23-.71-.35-.16-.11-.33-.23-.49-.34-.14-.07-.3-.1-.46-.1.49-1.61.7-1.77,2.08-1.47.6.13,1.17.34,1.76.52.3.67.63.82,1.04.08.31-1.75,1.8-2.39,3.26-3.38-1.83-2.68-2.14-6.07-4.18-8.67h.02Z"/>
      <path class="st0" d="M377.01,214.23c-2.08-1.34-4.16-2.67-6.24-4.01-.32-.12-.64-.24-.96-.37-.79-.36-1.59-.72-2.38-1.08-.17-.12-.34-.25-.51-.37l-.1-.07c-.11-.09-.23-.19-.34-.28-.39-.56-.79-1.12-1.18-1.68-.1-.11-.21-.23-.31-.34l-.08-.1c-.13-.14-.26-.29-.38-.43-.34-.77-.7-1.53-1.03-2.31-.18-.44-.16-1.1-.47-1.33-1.88-1.38-.58-3.01-.46-4.55.02-.07.08-.16.06-.21-.06-.13-.15-.24-.23-.35-.91-3.01-1.82-6.02-2.73-9.03.48-.18.95-.41,1.44-.53.82-.2,1.65-.33,2.48-.49.1.06.2.11.31.15.3.44.6.87.9,1.31-.03,1.37.39,2.44,1.77,2.82.45-.66.88-1.29,1.31-1.92,0,0,.07.05.07.04.14.13.28.26.42.39.42,1.61,1.1,2.73,3.13,2.57,1.24-.1,1.42.65.63,1.82-.19.28-.22.66-.33.99.13.16.26.32.39.48.48.48.97.95,1.45,1.43l1.86.51.16-.05c.12.15.25.3.37.45.04.34.09.68.13,1.02-.09.13-.19.27-.28.4-.18,0-.3.07-.35.24-.09.09-.18.18-.27.28-.7.81-.35,1.63-.02,2.44.1.16.2.32.3.48.35.31.71.62,1.06.93.29.16.57.33.86.49.04.17.09.33.13.5-.17.32-.34.63-.5.95-.09.12-.13.26-.12.41-.12.18-.25.36-.37.54v.49l.38.52c2.53,2.04,2.89,4.95,3.14,7.9-.19.05-.39.1-.58.15l-.09.02c-.33-.13-.67-.26-1-.39-.34-.18-.68-.35-1.02-.53-.14-.11-.27-.22-.41-.33v.03Z"/>
      <path class="st9" d="M313.04,186.87c-.47-.07-.94-.14-1.41-.22-.02-.16.01-.31.08-.45.23-.12.47-.23.7-.35-.23-.18-.46-.36-.69-.54-.99-.48-1.78-.96-1.16-2.35.22-.51-.15-1.28-.25-1.93.16-.16.32-.33.47-.49.61-.3,1.26-.55,1.84-.91.78-.49,1.46-1.17,2.28-1.54.38-.17,1,.19,1.59.32.3-.97.48-2.4,2.07-2.79.36-.09.96-.22,1.09-.06,1.29,1.71,2.77-.29,4.15.19.23.08,1.16-.94,1.24-1.52.2-1.63,1.16-2.77,2.12-3.93,1.14-1.38,2.45-1.48,3.88-.38,1.07.82,1.58.75,2.23-.34.2-.34.45-.71.48-1.08.11-1.41.93-2.45,1.71-3.51.68-.93,1.05-1.83.72-3.07-.17-.63.3-1.43.48-2.16.42.3,1.19.6,1.19.89-.02,1.46.7,1.09,1.44.68.42-.24.79-.57,1.47-1.08-1.58-.58-2.79-1.02-4-1.47,0-.08-.03-.17,0-.24,1.61-3.59,2.9-7.41,5.96-10.11,2.37-2.09,4.92-3.96,7.39-5.93.2.17.39.33.59.5-1.3,1.02-2.62,2.03-3.9,3.08-.85.71-1.57,1.61-2.48,2.22-2.12,1.42-3.69,3.25-4.52,5.66-.37,1.09-.64,2.17-1.5,3.02-.7.7-.72,1.38.43,1.72.61.18,1.24.35,1.77.67.99.59,1.02,1.76,0,2.25-.98.47-2.08.68-3.03.98-.31.72-.59,1.51-.98,2.25-.79,1.49-1.86,2.83-2.21,4.55-.4,1.93-2.13,2.55-3.58,1.32-1.12-.95-1.99-1.03-2.85.04-.78.96-1.47,2.08-1.87,3.25-.77,2.24-1.33,2.77-3.69,2.76-.06.13-.12.27-.18.4-.1.22-.2.44-.3.65-.15-.06-.3-.07-.45-.03-.77-.16-1.77.52-2.28-.62.05-.27.11-.53.16-.8-.24.07-.49.14-.73.21-1.24.53-1.1,1.6-1.01,2.63.09.99.08,1.91-1.06,2.36-.22-.45-.44-.88-.66-1.32-1.3.95-1.17-.41-1.54-1.16-.56.64-.92,1.36-1.49,1.65-1.4.72-1.02,1.78-.71,2.81.18.58.65,1.06.88,1.62.19.46.24.98.35,1.47-.08.08-.15.16-.23.24h0Z"/>
      <path class="st0" d="M228.9,198.76c.06.62.13,1.24.19,1.86-.3.05-.59.11-.89.16l-.06-.08c-.15-.15-.29-.29-.44-.44-.14-.06-.29-.09-.44-.1-.15-.12-.3-.24-.46-.36,0,0-.13-.09-.13-.08-.12-.11-.24-.23-.36-.34l-.02-.12h-.12c-.11-.14-.23-.27-.34-.39l-.08-.1c-.13-.16-.25-.33-.38-.49,0-.3.01-.6.02-.9.12-.18.24-.35.35-.53.37-.84.11-1.53-.61-2-1.08-.71-.78-1.5-.25-2.35.15-.15.3-.3.45-.46.51-.1,1.03-.21,1.54-.31.12-.22.24-.43.36-.65.01-.17.03-.34.04-.52.15-.15.31-.29.46-.44l.03-.02c.26-.16.52-.32.77-.48l.66-.57c.78.21,1.32.18.87-.86.96-.67,1.92-1.34,2.88-2.01.57.7,1.21,1.1,2.21,1.06.88-.03,1.77.27,2.65.42-1.52.26-2.51,1.24-3.35,2.44-.6-.02-1.01.19-.98.88-.15.05-.3.1-.46.16-.22.11-.43.22-.65.33-1.61,1.28-3.08,2.66-3.42,4.84-.02.82-.04,1.64-.06,2.46h.02Z"/>
      <path class="st0" d="M357.38,239.03c-2.89-.05-5.77-.1-8.66-.15-.03-.38.08-.84-.11-1.12-.91-1.39-.16-2.08,1.01-2.65.8.02,1.61.04,2.41.06.34.04.69.08,1.03.12.32-.14.63-.28.95-.42.44-1.24.97-2.48-.52-3.47-.18-.12-.05-.73-.06-1.11.19-.01.37-.02.56-.03,1.62,1.41,3.48,2.56,4.6,4.51.34.58.98.99,1.49,1.48.19.15.38.3.57.44h0c.17.13.34.25.5.38.76.53,1.53,1.07,2.29,1.6-1.78.13-3.55.25-5.33.38h-.73v-.02ZM356.01,237.9c.13-.12.26-.25.38-.37-.34-.6-.64-1.22-1.06-1.77-.13-.17-.56-.12-.85-.17-.05.39-.29.95-.12,1.12.46.48,1.08.8,1.64,1.18h0Z"/>
      <path class="st4" d="M358.11,239.03c1.78-.13,3.55-.25,5.33-.38,1.29.92,2.57,1.84,4.03,2.88-.37.39-.68.69-.94,1.02-.23.3-.64.73-.56.98.52,1.61.45,3.58,1.99,4.64.98.68,2.29.87,3.41,1.39.63.29,1.16.79,2.11,1.47-1.42.26-2.29.42-3.23.6.12,1.16,1.75,1.83.52,3.31-.82-.98-1.72-1.85-2.39-2.87-1.14-1.74-1.84-3.81-3.9-4.81-.13-.06-.32-.18-.34-.29-.38-2.47-2.56-3.79-3.66-5.79-.5-.9-1.17-1.49-2.16-1.73-.07-.14-.14-.28-.21-.42h0Z"/>
      <path class="st9" d="M363.58,186.71c-.83.16-1.66.29-2.48.49-.49.12-.96.35-1.44.53-.17-.18-.33-.36-.5-.54-.02-.64-.03-1.28-.05-1.92-.02-.48-.04-.96-.05-1.44-.1-.14-.19-.28-.29-.41-.32-.32-.65-.64-.97-.96-.2-.3-.39-.6-.59-.9.11-.11.22-.22.33-.33,1.75.61,2.45,1.85,2.32,3.68-.12,1.78-.08,1.79,1.72,1.78.28,0,.57-.12.86-.18-.15-.48-.38-.87-.36-1.24.07-1.62,1.09-3.16.39-4.86-.03-.08.12-.36.21-.37,1.15-.15.77-1.12.76-1.68-.03-1.85.54-3.35,1.96-4.57.25-.22.37-.8.29-1.15-.53-2.15-1.08-4.3-1.73-6.41-.7-2.26-.19-4.82-1.72-6.88-.11-.15.02-.61.19-.82.28-.36.77-.59.99-.98.24-.42.27-.96.4-1.44-.52-.1-1.05-.3-1.56-.26-.61.04-1.35.59-1.78.39-1.67-.78-2.58.4-3.44,1.3-.61.63-.91.7-1.52.18-.75-.64-.59-1.26.05-1.8.41-.35.93-.58,1.39-.87.47.02.36,1.67,1.26.45.07-.13.11-.27.14-.41,1.47-.13,2.95-.23,4.42-.4.79-.09,1.34.08,1.73.85.38.74.76,1.39-.02,2.12-1.05.99-1.01,2.11-.61,3.47.54,1.81.56,3.77,1.06,5.59.64,2.32,1.56,4.56,2.28,6.86.11.35-.21.83-.33,1.25-.58.13-1.16.25-1.75.38-1.02,1.56-1.48,3.18-.63,5,.17.37.02.9.02,1.36-.29.03-.58.06-.88.09.14.24.27.48.41.71-.08.28-.07.66-.25.84-1.11,1.12-1.06,2.27-.22,3.5h-.01Z"/>
      <path class="st9" d="M265.18,168.03c.62-.46,1.23-.91,1.97-1.45.83,1.04,2.21,1.7,1.69,3.52-.12.41.41,1.29.87,1.54,1.12.61,1.16,1.6,1.31,2.61-.05.15-.13.3-.13.45,0,.22.07.43.12.65.14-.2.3-.39.41-.6.07-.13.07-.3.1-.46.42-.07,1.08-.34,1.22-.17.9,1.04,2.43,1.6,2.57,3.24.08,1.02,1.1.25,1.46.73.16.22.29.52.29.78,0,.11-.45.37-.53.32-1.79-1.19-2.99.32-4.39.92-.4.17-.83.29-1.24.43-.06-.43-.15-.86-.16-1.29-.01-.55.05-1.09.08-1.64-.16-.02-.31-.05-.47-.07-.41,0-.81,0-1.22.02-.34-.11-.68-.23-1.02-.34-1.68-.82-2.17-2.74-3.53-3.88-.2-.17-.24-.84-.08-1.11.73-1.18.53-2.48.59-3.74.04-.17.09-.34.13-.5l-.03.03h-.01ZM269.98,173.29c-.52-.54-1.75,1.48-1.72-.6,0-.07-.69-.31-.81-.2-1.15,1.05-.72,3.07.75,3.62.55.21,1.14.3,1.78.47v-3.29ZM271.41,179.44c.96-.42,1.65-.63,2.25-1,1.04-.64.97-1.64-.12-2.2-.5-.25-1.02-.45-1.49-.64-.18,1.05-.38,2.29-.64,3.85h0ZM268.39,169.87c-.49-.76-.76-1.68-1.2-1.76-.93-.18-1.38.43-1.15,1.48.07.33-.33.74-.31,1.1.05.74.42,1.29,1.22.71.5-.36.87-.9,1.44-1.52h0Z"/>
      <path class="st9" d="M354.12,149.81c.19.17.35.39.57.52.56.32,1.13.6,1.7.9-.32.21-.65.41-.97.62-.77-.5-1.54-.99-2.3-1.49-.77-.51-.29-1.15-.1-1.7.04-.12.73-.03,1.11,0,1.14.09,1.59-.25,1.71-1.53.11-1.1.47-1.83,1.74-1.76.24,0,2.88-2.38,2.85-2.56-.04-.23-.2-.43-.25-.65-.42-1.76-1.86-1.66-3.01-1.62-.1-1.14-.16-2.15-.31-3.14-.03-.21-.43-.52-.65-.51-.72.04-2.47,1.93-2.64,2.71-.12.51-.32,1.01-.48,1.51l-.09.51-.86.03c-.01-2.02.65-3.65,2.5-4.71.72-.42,1.32-1.04,2.19-1.75.59,1.33,1.09,2.45,1.58,3.57.11.15.22.29.33.44.62.45,1.25.9,1.87,1.35.2-.05.39-.11.59-.16.08.24.16.47.23.71.06.16.12.33.18.49.08,2.48-2.07,3.35-3.55,4.58-.65.55-1.49.57-1.35,1.77.05.47-.58,1.02-.89,1.54-.57.11-1.14.23-1.72.34h.02Z"/>
      <path class="st9" d="M354.43,187.68c-.82-.16-1.64-.46-2.46-.47-12.04-.03-24.08,0-36.13-.04-.93,0-1.87-.2-2.8-.31.07-.08.15-.16.23-.24,12.05.02,24.1.02,36.14.1,2.4.02,4.77-.58,7.32.02-.35-2.04-.27-3.89-1.81-5.4-1.07-1.05-.09-3.3,1.4-3.55.15-.03.55.53.54.54-1.17,1.3.34,1.96.67,2.89-.11.11-.22.22-.33.33-.53-.45-1.06-.9-1.59-1.35-.13.14-.26.29-.4.43.58.58,1.18,1.13,1.72,1.74.23.26.34.65.5.98.04,1.29.08,2.58.12,3.87-.92.05-1.95-.43-2.7.52h-.21l-.2-.07h-.01Z"/>
      <path class="st9" d="M282.89,186.67c-.64.17-1.27.5-1.91.5-2.91,0-5.83-.11-8.74-.1-.44,0-.88.4-1.32.61-.03-.16-.06-.31-.08-.47,0-.73.39-1.08,1.09-1.11.16-.11.32-.22.48-.32.3-1.3.36-2.71.94-3.86,1-1.95,2.03-1.87,3.51.02-.41.48-.71.91.32.94.29,0,.57.22.85.34.37.03.76.15,1.11.06,2.98-.7,4.93.72,5.3,3.9-.43-.3-.87-.6-1.3-.91.05-.74-.53-1.07-.96-1.51-1.31-1.34-2.22-1.34-3.27.21-.57.85-1.45.51-1.48.17-.13-1.71-1.65-1-2.53-1.55.15-.34.3-.61.39-.9.09-.33.12-.68.18-1.02-.41.12-1.08.12-1.18.36-.42.99-.81,2.04-.93,3.09s.37,1.7,1.68,1.64c2.62-.12,5.25-.06,7.87-.08h-.02Z"/>
      <path class="st9" d="M237.82,187.65c-.88-.15-1.77-.46-2.65-.42-1,.04-1.64-.36-2.21-1.06.5-.8,1-1.6,1.5-2.39.64-.13,1.28-.27,1.92-.4,1.76-1.11,3.65-1.39,5.66-.9.53,0,1.06-.02,1.59-.03.48-.28.96-.56,1.43-.86.7-.45,1.4-.44,1.94.16.58.65.72,1.46.13,2.19-.8.98-1.59,2.03-3.07,1.98-.15-.04-.29-.04-.44,0-.34,0-.68.02-1.01.03-.77.08-1.54.17-2.3.26-.83.49-1.66.98-2.48,1.47v-.03ZM235.85,186.69c.58,0,.87.09,1.05,0,2.4-1.38,5.1-1.48,7.72-1.98.69-.13,1.31-.8,1.86-1.33.16-.16.02-.74-.14-1.05-.06-.13-.58-.14-.82-.04-.43.18-.78.6-1.22.72-.8.22-1.72.59-2.45.39-2.43-.65-4.45.16-6.34,1.5-.34.24-.51.93-.49,1.4.01.2.73.36.83.4h0Z"/>
      <path class="st9" d="M304.08,177.71c-.5-.2-1.01-.4-1.51-.6-.46-.79-.92-1.58-1.38-2.37.17-.85.34-1.71.51-2.56.51-.12,1.01-.24,1.52-.36.12-.33.25-.66.37-.99.35.8.7,1.59,1.04,2.39-.53-.03-1.06-.05-1.59-.08-.82-.03-1.24.53-1.01,1.16.28.78.79,1.57,1.41,2.11.29.26,1.55,1.16,1.49-.57,0-.26.53-.54.8-.82.88-.9.73-1.64-.35-2.23-.31-.82-1.1-1.64.07-2.42.66-.19,1.32-.37,1.98-.56.16.04.33.08.49.11l-.04-.04c.14.49.28.99.42,1.48,0,1.44-.18,2.71-1.53,3.72-.8.6-1.2,1.74-1.78,2.64-.3,0-.61-.02-.91-.03v.02ZM307.42,171.86c-.42-.39-.73-.67-1.03-.94-.11.17-.35.43-.3.48.23.31.52.59.82.84.03.02.25-.19.51-.39h0Z"/>
      <path class="st0" d="M156.74,201.52c1.38.91.95,2.52,1.4,3.79.11.31-.57,1.06-1.05,1.33-.25.14-.97-.2-1.26-.52-1.28-1.43-2.06-3.13-2.43-5.02.38-.13.76-.25,1.15-.38l1.32.41c.29.13.59.26.88.4h-.01Z"/>
      <path class="st9" d="M205.18,187.24c-2.06-.02-4.12-.02-6.17-.05-.68,0-1.53.14-1.48-.99,0-.47-.04-.93-.02-1.4.07-2.18,1.91-3.63,4.04-3.23.76.14,1.53.24,2.29.36-.02.99.83.77,1.37.99,0,.69.03,1.37.04,2.06-.28.05-.56.1-.84.15.27.35.55.7.82,1.05-.02.35-.04.71-.06,1.06h.01ZM197.9,186.6h6.03c-.18-1.11-.06-2.32-.6-3.02-.55-.72-1.72-1.19-2.68-1.3-.64-.07-1.67.51-1.99,1.1-.49.89-.51,2.03-.77,3.22h.01Z"/>
      <path class="st9" d="M239.76,164.77c-.16-.16-.3-.36-.48-.47-1.96-1.11-1.37-2.91-1.38-4.6,1.33.16,2.53.31,3.73.46.38.05.75.1,1.13.15-.25.79-.51,1.57-.76,2.36-.13,0-.24.07-.32.16-1.17.05-1.81.7-1.91,1.94h0Z"/>
      <path class="st9" d="M242.72,166.57c-.03-.17-.05-.34-.08-.51.5-.78,1.23-1.06,2.13-1.11.22,0,.42-.44.63-.67.1-.1.21-.2.31-.29.42-.26.84-.53,1.26-.79l-.04.03c.32.21.81.35.91.64.19.53.29.83.96.61.33-.11,1.03-.04,1.1.13.25.69-.02,1.31-.79,1.44-.7.12-1.42.05-2.14.06-.22-.27-.44-.54-.65-.8-.06.05-.11.11-.17.16.28.21.55.42.83.64-.33.19-.66.39-1,.58h-.93c-.78-.04-1.56-.09-2.34-.13h.01Z"/>
      <path class="st9" d="M308.88,180.63c-.51-.63-1.08-1.22-1.52-1.9-.24-.37-.42-.96-.29-1.32.1-.27.75-.41,1.17-.47.75-.1,1.52-.13,2.28-.1.81.04,1.43.54,1.44,1.32,0,.39-.58.82-.97,1.16-.35.3-.78.5-1.18.75-.31.19-.62.38-.93.56h0ZM311.1,177.95c-.87-.53-1.55-.4-2.06.36-.08.11.07.38.11.58.62-.18,1.24-.36,1.85-.55.04,0,.04-.13.11-.38h0Z"/>
      <path class="st9" d="M338.63,145.2c-.08.3-.22,1.15-.55,1.93-.24.56-.81.76-1.36.29-1.13-.97-1.4-3.26-.41-4.31.37-.39,1.04-.71,1.55-.69.27,0,.56.81.74,1.29.11.27.02.62.02,1.49h.01ZM337.46,146.8c.2-1.01.42-1.91.53-2.82.03-.21-.28-.62-.48-.66-.22-.04-.64.21-.72.42-.36,1.06-.5,2.13.67,3.06h0Z"/>
      <path class="st9" d="M243,162.72c.49-.37.94-.82,1.48-1.08.65-.32,1.54-.85,2.05-.63.87.37.71,1.39.41,2.23l.04-.03c-.59,0-1.35-.29-1.26.79-.1.1-.21.19-.31.29-1.06.15-1.83-.38-2.52-1.08.04-.16.07-.32.11-.47v-.02Z"/>
      <path class="st9" d="M307.76,169.47c1.16-.76,2.29-1.57,3.48-2.26.76-.44,1.46.03,1.4.9-.07,1-.44,1.84-1.45,2.29-.56.25-1.08.6-1.61.9-.57-.46-1.13-.93-1.7-1.39l.04.04c-.05-.16-.1-.32-.16-.48h0ZM308.94,169.71c.12.16.25.32.37.49.87-.51,2.48-.14,2.33-2.17-1,.62-1.85,1.15-2.7,1.68h0Z"/>
      <path class="st6" d="M286.25,193.54c-1.27.34-2.55.62-3.87.26l.02.04c-.11-1.76,1.31-2.76,2.05-4.09.44.46.87.93,1.31,1.39-.73-.11-1.47-.15-1.79.67-.1.26.17.96.26.96.49,0,.97-.18,1.46-.29.19.35.37.71.56,1.06h0Z"/>
      <path class="st0" d="M217.7,201.71c-1.55-1.44-1.49-1.79.49-3.12l.22.08.23-.03c.8,1.41.64,2.44-.48,3.08-.15-.06-.3-.06-.45,0h-.01Z"/>
      <path class="st3" d="M336.75,158.78c1.21.45,2.43.89,4,1.47-.68.51-1.05.85-1.47,1.08-.74.41-1.46.79-1.44-.68,0-.29-.77-.6-1.19-.89.03-.33.06-.65.09-.98h.01Z"/>
      <path class="st9" d="M364.7,186.78c-.01-.08-.04-.15-.04-.23.04-.73-.24-1.78.9-1.77,1.18,0,.8,1.07.83,1.8.03.69.05,1.39.07,2.08-.37-.16-.73-.33-1.1-.49-.22-.46-.45-.93-.67-1.39h.01Z"/>
      <path class="st0" d="M379.63,219.79c-.02-.45-.03-.89-.05-1.34-.08-.16-.15-.33-.23-.49-.96-.53-.11-.96.09-1.43h.86c.14,1.02.32,2.04.38,3.06.01.18-.5.38-.76.58-.09-.12-.19-.25-.28-.37h0Z"/>
      <path class="st12" d="M239.76,164.77c.1-1.24.74-1.89,1.91-1.95.01.13.01.27-.01.4-.32.62-.71,1.23-.09,1.9-.15.15-.29.31-.44.46-.67.08-1.37.23-1.38-.81h.01Z"/>
      <path class="st1" d="M355.43,151.84c.32-.21.64-.41.97-.62,1.4.91,1.42,2.39,1.55,3.82.09.15.18.3.26.46-.91,1.22-.79-.43-1.26-.45-.04-1.29.03-2.63-1.52-3.21h0Z"/>
      <path class="st12" d="M242.89,163.2c.7.7,1.47,1.23,2.52,1.08-.21.24-.41.66-.63.67-.91.04-1.63.33-2.13,1.11-.04-.14-.07-.29-.08-.44-.13-.18-.26-.36-.38-.55-.09-.68,1.4-.96.47-1.86l.11-.05.12.03h0Z"/>
      <path class="st0" d="M354.84,187.75c.75-.95,1.78-.46,2.7-.52-.13.77-.26,1.54-.4,2.3l-.14-.06-.12.1c-.18,0-.35-.02-.53-.03-.17-.12-.35-.25-.52-.37v-.02c-.14-.17-.28-.34-.42-.51-.19-.3-.39-.6-.58-.9h0Z"/>
      <path class="st4" d="M381.8,248.4c0-.97-.02-1.93.02-2.9,0-.15.31-.4.46-.39.17,0,.48.26.47.4-.02.98-.1,1.95-.16,2.93-.27-.01-.53-.02-.8-.04h.01Z"/>
      <path class="st9" d="M344.37,237.11c0-.08-.02-.16-.03-.23-.11-.93.02-2.04,1.05-2.02,1.14.02.96,1.16.8,2.03-.61.08-1.21.15-1.82.23h0Z"/>
      <path class="st9" d="M186.04,200.67c-1.06.12-2.13.31-3.19.36-1.79.09-3.58.1-5.38.14.26-.2.51-.57.77-.57,2.6,0,5.2.04,7.8.07Z"/>
      <path class="st1" d="M352.14,141.64c.29,0,.57-.02.86-.03h-.01c.48.4.97.8,1.45,1.19-.02.15-.11.24-.27.25-.86-.39-1.71-.92-2.62-.11-.29.02-.58.04-.86.06-.2-.17-.39-.33-.59-.5.68-.29,1.36-.57,2.04-.86h0Z"/>
      <path class="st3" d="M254.19,199.69c.11.24.3.48.3.72,0,.72-.09,1.43-.14,2.15-.28.13-.56.25-.85.38-.13-.02-.2-.1-.22-.23.06-.1.12-.19.19-.29l-.24.23c-.5-.36-1-.72-1.51-1.08.97-.27,2.44,0,1.88-1.84.19-.02.39-.03.58-.05h.01Z"/>
      <path class="st0" d="M285.69,192.48c-.49.11-.97.28-1.46.29-.09,0-.36-.69-.26-.96.32-.82,1.06-.78,1.79-.67-.02.44-.05.89-.07,1.33h0Z"/>
      <path class="st6" d="M357.43,183.36c-.16-.33-.26-.71-.5-.98-.54-.61-1.14-1.16-1.72-1.74.13-.14.26-.29.4-.43.53.45,1.06.9,1.59,1.35.2.3.39.6.59.9-.12.3-.24.6-.36.9Z"/>
      <path class="st9" d="M253.6,199.73c.56,1.83-.91,1.57-1.88,1.84l.02-.17c.12-.19.24-.39.35-.58.19-.79.51-1.41,1.51-1.09Z"/>
      <path class="st1" d="M305.45,170.4c-1.17.78-.38,1.6-.06,2.42l-.75.42c-.35-.8-.7-1.59-1.04-2.39.62-.15,1.24-.3,1.86-.45h0Z"/>
      <path class="st0" d="M376.99,189.13c.35-.1.7-.31,1.05-.29.39.02.81.18,1.13.4.08.06-.18.59-.28.91l-1.86-.18-.04-.84h0Z"/>
      <path class="st9" d="M304.55,182.77c-.49-.8-.79-1.21-.96-1.66-.04-.11.36-.39.55-.59.29.37.65.7.85,1.11.08.16-.17.48-.44,1.14Z"/>
      <path class="st12" d="M218.66,203.95c-1.73.06-3.47.12-5.2.18,1.7-1.1,3.45-.76,5.2-.18Z"/>
      <path class="st12" d="M259.93,197.33c-1.54,1.01-3.22.26-4.83.36.65-.26,1.3-.52,1.96-.78.29.13.57.25.86.38l2.01.05h0Z"/>
      <path class="st4" d="M381.23,252.34c-.09-.28-.29-.58-.23-.82.09-.34.37-.64.56-.95.11.32.28.63.31.95.02.27-.12.56-.19.84-.15,0-.3-.01-.46-.02h.01Z"/>
      <path class="st4" d="M384.15,239.07c-.03.73-.06,1.46-.09,2.19l-.56.03c-.47-.68-.35-1.49-.29-2.29.31.02.63.05.94.07Z"/>
      <path class="st9" d="M229.23,208.51c-.51.32-1.02.63-1.92,1.19.46-1.14.7-1.72.93-2.31.3.14.6.28.89.42h.05c-.11.03-.22.06-.33.09l.35.32c0,.09.02.18.03.28h0Z"/>
      <path class="st12" d="M249.39,203.52c.03-.48.06-.96.1-1.44.26,0,.52,0,.78,0,.29.34.6.67.86,1.03.07.1.01.29.01.37h-1.77l.02.03h0Z"/>
      <path class="st9" d="M260.87,193.93c.38.99-.4,1.4-.97,1.92-.94-1.49-.89-1.58.97-1.92Z"/>
      <path class="st0" d="M384.12,232.69c.08.58.16,1.16.27,1.94-.38-.15-.69-.2-.7-.29-.08-.53-.08-1.07-.11-1.61.18-.01.36-.03.54-.04Z"/>
      <path class="st6" d="M301.19,174.75c.46.79.92,1.58,1.38,2.37-.24,0-.48.03-.72.04-.08-1.03-.61-1.61-1.67-1.63.34-.26.68-.52,1.02-.78h0Z"/>
      <path class="st9" d="M300.17,175.53c1.06.02,1.59.59,1.67,1.63-.25.14-.51.4-.76.39-.29-.02-.9-1.5-.92-2.02h.01Z"/>
      <path class="st12" d="M225.42,207.22c-.82-.28-1.64-.56-2.46-.83,0-.13.02-.26.03-.4,1.09-.15,2.12-.17,2.43,1.23Z"/>
      <path class="st9" d="M258.73,188.84c-.24.28-.47.6-.52.58-.35-.18-.66-.43-.99-.66.14-.14.32-.43.41-.4.35.09.68.29,1.1.49h0Z"/>
      <path class="st9" d="M264.69,168.48c-.33-.26-.66-.52-.99-.78.26-.23.52-.45.78-.68.23.33.46.67.69,1l.03-.03c-.17.16-.34.32-.51.49h0Z"/>
      <path class="st3" d="M238.45,213.66c-.03.15-.07.28-.14.41-.17.03-.34.07-.51.1-.14-.52-.28-1.03-.42-1.55.38-.16.76-.33,1.14-.49.07.31.13.61.2.92-.09.2-.17.41-.26.61h0Z"/>
      <path class="st9" d="M257.86,169.61c-.49-.89-.62-1.12-.75-1.36.3-.15.6-.35.92-.43.1-.02.42.32.39.45-.07.35-.27.67-.56,1.33h0Z"/>
      <path class="st9" d="M177.91,204.02c.23.19.5.35.67.58.1.14.09.49,0,.59-.11.11-.48.12-.59.02-.39-.35-.73-.77-1.08-1.16.34,0,.68-.02,1.02-.03h-.01Z"/>
      <path class="st11" d="M344.37,237.72c.33.27.66.53.98.8-.03.15-.05.31-.06.46-.54-.07-1.07-.14-1.61-.21.23-.35.46-.7.68-1.06h0Z"/>
      <path class="st9" d="M264.17,184.05c-.28.22-.5.4-.72.58-.15-.23-.3-.46-.45-.68.24-.15.46-.35.72-.42.08-.02.26.29.46.52h0Z"/>
      <path class="st1" d="M270.48,187.95c-.19.66-.53.62-.94.19-.34-.17-.67-.34-1.01-.51.56-.1,1.12-.19,1.67-.29.09.2.18.41.28.61h0Z"/>
      <path class="st9" d="M257.92,197.28c-.29-.13-.58-.25-.86-.38-.17-.36-.33-.71-.5-1.07.15-.06.3-.11.45-.17,1.02.13,1.23.73.92,1.61h-.01Z"/>
      <path class="st11" d="M345.8,238.59c.16-.32.33-.64.49-.95.36.42.71.84,1.07,1.27-.39.05-.78.1-1.18.15-.13,0-.26.01-.4.02h-.01c0-.16.02-.32.02-.48h.01Z"/>
      <path class="st9" d="M246.46,199.23c-.41-.17-.95-.22-1.22-.52-.48-.54-.4-1.04.49-1.03.24.52.48,1.04.72,1.56h.01Z"/>
      <path class="st9" d="M306.73,163.67c.09.38.21.65.17.9-.02.12-.33.2-.51.29-.11-.24-.29-.48-.3-.73,0-.11.31-.24.63-.47h0Z"/>
      <path class="st12" d="M365.37,188.17h-.59c-.3-.44-.6-.87-.91-1.31.27-.03.55-.05.82-.08.22.46.45.93.67,1.39h0Z"/>
      <path class="st9" d="M381.45,221.7c.19.36.43.62.4.85-.02.16-.41.28-.63.41-.12-.26-.29-.52-.32-.8-.01-.1.28-.25.55-.47h0Z"/>
      <path class="st9" d="M249.43,197.77c.23-.33.45-.65.68-.98.29.35.59.71.88,1.06-.52-.03-1.04-.06-1.56-.08Z"/>
      <path class="st9" d="M257.11,190.47c.19.51.39.79.34,1.01-.04.2-.36.34-.56.51-.14-.23-.39-.46-.38-.69,0-.21.28-.41.6-.82h0Z"/>
      <path class="st12" d="M242.72,166.57c.78.04,1.56.09,2.34.13l.02.23c-.24.22-.49.43-.73.65l-1.62-1.01h0Z"/>
      <path class="st9" d="M255.83,173.48c-.27.23-.49.49-.56.45-.25-.13-.45-.36-.67-.56.19-.17.4-.51.55-.48.23.04.41.34.68.59h0Z"/>
      <path class="st9" d="M203.31,201.12c.8-.14,1.6-.28,2.4-.43-.33.18-.66.36-.99.54-.47-.04-.94-.07-1.4-.11h0Z"/>
      <path class="st11" d="M383.64,252.07c-.22-.24-.47-.39-.47-.55s.22-.34.34-.5c.17.13.43.25.47.41.03.15-.18.36-.34.64h0Z"/>
      <path class="st9" d="M268.74,185.45c-.35-.43-.72-.71-.67-.87.07-.24.42-.41.65-.61.12.16.35.32.35.48,0,.25-.15.5-.33,1Z"/>
      <path class="st12" d="M240.3,186.19c.77-.09,1.54-.17,2.3-.26-.77.09-1.54.17-2.3.26Z"/>
      <path class="st9" d="M380.44,186.53c.22.32.44.56.41.61-.21.29-.48.53-.73.78-.14-.15-.42-.38-.38-.45.16-.3.4-.56.71-.95h0Z"/>
      <path class="st3" d="M237.17,212.45c-.28-.4-.56-.8-.84-1.2.04-.18.07-.35.11-.53.7.38,1.09.89.74,1.73h0Z"/>
      <path class="st9" d="M228.9,198.76c.02-.82.04-1.64.06-2.46-.02.82-.04,1.64-.06,2.46Z"/>
      <path class="st1" d="M352.03,235.16c-.8-.02-1.61-.04-2.41-.06.82-.6,1.62-.6,2.41.06Z"/>
      <path class="st12" d="M380.3,216.53h-.86l.09-1.08c.2-.05.39-.1.59-.15.06.4.12.81.18,1.21v.02Z"/>
      <path class="st12" d="M236.38,183.37c-.64.14-1.28.27-1.92.4.64-.14,1.28-.27,1.92-.4Z"/>
      <path class="st9" d="M197.08,200.18l-.97-.4c.16-.24.32-.48.47-.72.16.37.33.75.49,1.12h0Z"/>
      <path class="st0" d="M248.91,162.64c-.01-.3-.02-.6-.04-.91.32.02.63.05.95.07,0,.32,0,.63.01.95-.31-.04-.62-.08-.93-.11h0Z"/>
      <path class="st3" d="M308.83,189.61c-.05,1.21-.61,1.24-1.45.63l-.06-.12c.51-.17,1.01-.34,1.52-.51h0Z"/>
      <path class="st6" d="M354.12,149.81c.57-.11,1.15-.23,1.72-.34-.57.11-1.14.23-1.72.34Z"/>
      <path class="st12" d="M359.1,185.27c.02.64.03,1.28.05,1.92-.59-.63-.55-1.27-.05-1.92Z"/>
      <path class="st9" d="M375.5,197.32l-1.86-.51,1.86.51Z"/>
      <path class="st9" d="M244.34,167.57c.24-.22.49-.43.73-.65.15.06.3.1.45.12-.18.39-.36.79-.55,1.18-.13-.04-.27-.05-.41-.03-.08-.21-.16-.42-.23-.62h0Z"/>
      <path class="st12" d="M249.43,197.77c.52.03,1.04.06,1.56.08-.56.65-1.07.52-1.56-.08Z"/>
      <path class="st1" d="M196.68,197.25c.27-.44.54-.87.81-1.31.09.66.2,1.33-.81,1.31Z"/>
      <path class="st3" d="M321.81,262.47c-.29-.05-.58-.09-.88-.14.11-.25.22-.49.33-.74.18.29.36.58.54.87h.01Z"/>
      <path class="st13" d="M197.05,186.32c-.63.12-1.26.25-1.88.37.63-.12,1.26-.24,1.88-.37Z"/>
      <path class="st13" d="M383.48,243.7c-.27.22-.43.34-.58.47-.11-.18-.26-.34-.32-.53-.02-.06.21-.29.29-.28.18.03.33.18.61.34Z"/>
      <path class="st9" d="M167.38,213.59c.13.65.25,1.3.38,1.95-1.08-.46-.21-1.31-.38-1.95Z"/>
      <path class="st9" d="M278.05,182.24c-.35-.11-.71-.21-1.06-.32.19-.17.39-.33.58-.5.16.27.32.54.48.81h0Z"/>
      <path class="st9" d="M356.67,199.78c-.35,0-.71,0-1.06,0,.35-.53.7-.75,1.06,0Z"/>
      <path class="st9" d="M262.25,191.93c-.39.22-.79.44-1.18.66.39-.22.79-.44,1.18-.66Z"/>
      <path class="st12" d="M242.76,160.3c-.38-.05-.75-.1-1.13-.15.42-.3.86-.71,1.13.15Z"/>
      <path class="st9" d="M237.86,207.89c-.04.5-.08.99-.12,1.49-.55-.54-.79-1.06.12-1.49Z"/>
      <path class="st9" d="M342.12,238.22c.09-.53.18-1.05.27-1.58-.09.53-.18,1.05-.27,1.58Z"/>
      <path class="st9" d="M268.53,187.63c.34.17.67.34,1.01.51-.5,0-.99,0-1.49,0,.16-.16.32-.33.48-.49h0Z"/>
      <path class="st9" d="M268.03,188.13c-.48.16-.96.32-1.44.49.48-.16.96-.32,1.44-.49Z"/>
      <path class="st9" d="M296.85,188.65c-.51-.03-1.02-.07-1.52-.1.56-.66,1.05-.38,1.52.1Z"/>
      <path class="st2" d="M228.2,200.78c.3-.05.6-.11.89-.16-.24.4-.47.79-.89.16Z"/>
      <path class="st9" d="M248.28,198.66c.04.31.09.62.13.93-.04-.31-.09-.62-.13-.93Z"/>
      <path class="st9" d="M197.06,200.65c0-.17,0-.33,0-.5.34.15.69.3,1.03.45-.34.02-.68.03-1.02.05Z"/>
      <path class="st1" d="M354.02,234.86c-.32.14-.63.28-.95.42.32-.14.63-.28.95-.42Z"/>
      <path class="st3" d="M234.05,207.7c-.15-.27-.3-.54-.45-.81.15.27.3.54.45.81Z"/>
      <path class="st12" d="M229.94,207.86c-.24.22-.47.43-.71.65,0-.09-.02-.18-.03-.28,0-.14,0-.28-.02-.41h-.05c.27.02.54.03.8.05h0Z"/>
      <path class="st12" d="M227.29,207.28h-.99.99Z"/>
      <path class="st12" d="M358.11,239.03c.07.14.14.28.21.42-.31.02-.61.03-.92.05-.03-.1-.08-.21-.09-.31,0-.05.04-.1.07-.16h.73Z"/>
      <path class="st9" d="M303.02,192.53c-.19-.07-.39-.13-.58-.2.12-.11.24-.22.36-.34.07.18.15.36.22.54Z"/>
      <path class="st9" d="M168.75,208.83c-.27.18-.53.36-.8.55.27-.18.53-.36.8-.55Z"/>
      <path class="st12" d="M181.38,256.8c.2-.12.41-.25.61-.37,0,.12.03.24.04.36-.22,0-.43,0-.65.01Z"/>
      <path class="st9" d="M236.43,210.72c-.04.18-.07.35-.11.53-.14-.32-.29-.64-.43-.96.18.14.36.29.54.43h0Z"/>
      <path class="st9" d="M355.18,202.53c.2-.16.4-.32.6-.48-.2.16-.4.32-.6.48Z"/>
      <path class="st9" d="M379.35,217.96c.08.16.15.33.23.49-.08-.16-.15-.33-.23-.49Z"/>
      <path class="st9" d="M379.63,219.79c.09.12.19.25.28.37-.09-.12-.19-.25-.28-.37Z"/>
      <path class="st9" d="M166.31,220.76c-.05.19-.1.39-.16.58.05-.19.1-.39.16-.58Z"/>
      <path class="st9" d="M342.96,221.33c.02.15.04.31.06.46-.09.1-.21.16-.34.17.09-.21.19-.42.28-.63Z"/>
      <path class="st12" d="M361.21,140.38c-.2.05-.39.11-.59.16.2-.05.39-.11.59-.16Z"/>
      <path class="st12" d="M361.63,141.57c-.06-.16-.12-.33-.18-.49.06.16.12.33.18.49Z"/>
      <path class="st12" d="M353.99,230.25c-.19.01-.37.02-.56.03.19-.01.37-.02.56-.03Z"/>
      <path class="st9" d="M342.97,230.86c-.09-.1-.19-.2-.26-.31-.02-.03.07-.11.11-.17.05.16.1.32.14.49h.01Z"/>
      <path class="st9" d="M163.48,234.74c.09.21.17.42.26.63-.09-.21-.17-.42-.26-.63Z"/>
      <path class="st9" d="M163.74,236.01c-.08.22-.16.44-.24.65.08-.22.16-.44.24-.65Z"/>
      <path class="st6" d="M284.86,187.68c-.1-.17-.2-.34-.3-.51.1.17.2.34.3.51Z"/>
      <path class="st6" d="M284.79,188.59l-.05-.18.16-.12c.07.14.03.24-.11.3h0Z"/>
      <path class="st9" d="M355.42,188.65c.14.17.28.34.42.51-.14-.17-.28-.34-.42-.51Z"/>
      <path class="st9" d="M355.85,189.17c.17.12.35.25.52.37-.17-.12-.35-.25-.52-.37Z"/>
      <path class="st1" d="M154.29,254.09l-.15.03-.04-.13h.13l.05.11h0Z"/>
      <path class="st9" d="M356.9,189.57l.12-.1.14.06c-.08,0-.17.02-.25.04h-.01Z"/>
      <path class="st3" d="M330.45,256.87c.19.14.37.27.56.41-.19-.14-.37-.27-.56-.41Z"/>
      <path class="st9" d="M295.07,190.05c.1.19.2.38.3.57-.1-.19-.2-.38-.3-.57Z"/>
      <path class="st6" d="M206.77,265.93c.12-.1.25-.2.37-.3-.12.1-.25.2-.37.3Z"/>
      <path class="st3" d="M201.38,266.52c.14.12.29.24.43.37-.14-.12-.29-.24-.43-.37Z"/>
      <path class="st3" d="M230.17,266.52c.14.12.28.24.42.36-.14-.12-.28-.24-.42-.36Z"/>
      <path class="st12" d="M206.87,193.94c-.03-.17-.06-.33-.09-.5.03.17.06.33.09.5Z"/>
      <path class="st12" d="M261.88,288.96c.14-.1.28-.21.43-.31-.14.1-.28.21-.43.31Z"/>
      <path class="st9" d="M261.02,193.41c-.05.17-.1.35-.15.52.05-.17.1-.35.15-.52Z"/>
      <path class="st6" d="M286.75,193.92c-.07.12-.14.24-.22.37-.05-.13-.1-.25-.14-.38.12-.03.24-.03.36,0h0Z"/>
      <path class="st9" d="M207.46,195.9c-.11-.17-.23-.34-.34-.51.11.17.23.34.34.51Z"/>
      <path class="st9" d="M362.38,196.76c.08.12.17.23.23.35.02.05-.04.14-.06.21-.09-.12-.19-.23-.25-.36-.02-.05.05-.14.07-.21h0Z"/>
      <path class="st9" d="M248.83,198.76c-.17-.04-.33-.09-.5-.13.17.04.33.09.5.13Z"/>
      <path class="st3" d="M226.31,199.36c.12.11.24.23.36.34-.12-.11-.24-.23-.36-.34Z"/>
      <path class="st3" d="M226.81,199.79c.15.12.3.24.46.36-.15-.12-.3-.24-.46-.36Z"/>
      <path class="st2" d="M227.71,200.25c.15.15.29.29.44.44-.15-.15-.29-.29-.44-.44Z"/>
      <path class="st9" d="M231.02,204.53c-.08-.21-.17-.42-.25-.64.08.21.17.42.25.64Z"/>
      <path class="st12" d="M229.81,205.4c.08.24.16.48.23.72-.08-.24-.16-.48-.23-.72Z"/>
      <path class="st9" d="M352.76,205.87c.09.14.19.28.28.42-.09-.14-.19-.28-.28-.42Z"/>
      <path class="st9" d="M238.29,207.33c-.14.18-.27.36-.41.54.14-.18.27-.36.41-.54Z"/>
      <path class="st9" d="M235.88,210.27l-.41-.53c.14.18.28.36.41.53Z"/>
      <path class="st3" d="M237.85,209.79c.12.15.24.3.36.45-.12-.15-.24-.3-.36-.45Z"/>
      <path class="st6" d="M240.74,533.76c-.05-.14-.07-.28-.05-.43,8.95-.03,17.9-.05,26.85-.08-.13.19-.26.37-.39.56-8.8-.02-17.6-.04-26.4-.05h-.01Z"/>
      <path class="st1" d="M107.83,537.09c-.19-.02-.38-.04-.57-.06.18-.12.35-.24.53-.37,0,.14.02.28.04.43h0Z"/>
      <path class="st13" d="M107.83,537.09c0-.14-.03-.28-.04-.43.17.12.34.23.51.35-.16.03-.31.05-.47.08Z"/>
      <path class="st3" d="M238.28,221.22c1.56.31,2.65-.28,3.43-1.66.5-.87,1.68-1.33,1.5-2.6.55-.15,1.1-.31,1.65-.46.36,1.06.27,1.99-.56,2.85-.36.37-.58.91-.78,1.41-.26.64-.56,1.08-1.36,1.07-.35,0-.88.18-1.04.44-.68,1.14-1.46.74-2.28.28-.2-.11-.39-.25-.58-.38,0-.32,0-.63.01-.95h0Z"/>
      <path class="st6" d="M244.87,216.5c-.55.15-1.1.31-1.65.46.41-.78.73-1.39.58-2.5-.28-2.03-.06-4.26.87-6.16.55-1.12.88-2.15.84-3.36l-.05.04c.7,1.24,1.33,2.37.31,3.88-.67,1-.84,2.36-1.13,3.58-.27,1.09.24,1.74,1.4,1.57.82-.12,1.38-.05,1.88.57l.04-.03c-1.5-.09-2.71.26-3.09,1.94h0Z"/>
      <path class="st6" d="M282.38,193.81c0,.22-.02.45.03.67.11.51.36,1.01.36,1.52,0,.37-1.84,1.57-2.69,1.82.83-1.41,1.58-2.68,2.32-3.96l-.02-.04h0Z"/>
      <path class="st12" d="M245.51,204.95c-.28-.25-.56-.5-.85-.74.54-.56,1.09-1.11,1.63-1.67.11-.06.21-.05.31.02.06.15.13.3.19.45.09.04.18.06.27.07-.53.64-1.07,1.27-1.6,1.91l.05-.04h0Z"/>
      <path class="st12" d="M249.23,204.12c.07.22.15.44.22.66.15.49.29.98.43,1.47-.21.06-.59.2-.61.16-.28-.5-.53-1.02-.73-1.55-.07-.2.03-.45.05-.68.21,0,.43-.03.64-.04v-.02Z"/>
      <path class="st12" d="M254.59,203.56c1.33-.3,1.1.78,1.25,1.48,0,.03-.64.35-.8.25-.35-.22-.66-.59-.82-.97-.07-.17.26-.51.41-.78l-.04.03h0Z"/>
      <path class="st1" d="M198.46,194.36l-.54.54c-.12-.19-.37-.39-.34-.56.05-.41.23-.81.35-1.21.18.41.35.82.53,1.23h0Z"/>
      <path class="st1" d="M238.28,221.22c0,.32,0,.63-.01.95-.26-.23-.62-.41-.76-.7-.13-.25-.03-.62-.03-.93.27.23.54.45.8.68h0Z"/>
      <path class="st9" d="M249.32,217.33c-.2.13-.37.23-.53.34-.08-.2-.24-.42-.21-.6.02-.15.26-.28.41-.41.1.2.2.39.34.68h-.01Z"/>
      <path class="st12" d="M247.92,214.59c.26.17.63.28.75.52.13.26.02.64.01.97-.22-.19-.52-.34-.63-.58-.12-.27-.07-.62-.1-.94l-.04.03h.01Z"/>
      <path class="st12" d="M253.5,202.94c.28-.13.56-.26.85-.38.08.33.16.67.24,1l.04-.03c-.38-.2-.76-.39-1.13-.59Z"/>
      <path class="st9" d="M221.87,206.43c.37,0,.74,0,1.11.02-.38.39-.76.96-1.11-.02Z"/>
      <path class="st9" d="M249.23,204.12c-.21,0-.43.03-.64.04.27-.21.54-.43.8-.64l-.02-.03c-.05.21-.09.42-.14.63h0Z"/>
      <path class="st9" d="M247.04,202.61c.29,0,.59-.02.88-.03-.29.16-.57.33-.86.5-.09,0-.18-.03-.27-.07.12-.11.2-.24.24-.4h0Z"/>
      <path class="st9" d="M167.7,210.65l.22-.44-.22.44Z"/>
      <path class="st9" d="M238.45,213.66c.09-.2.17-.41.26-.61-.09.2-.17.41-.26.61Z"/>
      <path class="st9" d="M237.8,214.18c.17-.03.34-.07.51-.1-.17.03-.34.07-.51.1Z"/>
      <path class="st9" d="M352.55,190.61c-.05.16-.1.32-.15.48-.02-.13-.05-.26-.05-.4,0-.03.13-.06.2-.08h0Z"/>
      <path class="st9" d="M246.74,200.59c-.08.18-.17.36-.25.53.08-.18.17-.36.25-.53Z"/>
      <path class="st12" d="M253.23,202.65l.24-.23c-.06.1-.12.19-.19.29l-.05-.06Z"/>
      <path class="st9" d="M352.58,205.14c-.19.06-.38.13-.58.19.19-.06.38-.13.58-.19Z"/>
      <path class="st1" d="M238.37,268.78l.27-.81c.19.21.39.42.58.63-.27.06-.55.13-.82.19h-.03s0-.01,0-.01Z"/>
      <path class="st13" d="M345.79,239.08c.13-.01.26-.02.4-.02-.03.26-.07.51-.1.77-.1-.25-.2-.5-.29-.74h0Z"/>
      <path class="st12" d="M160.66,252.42c.24.12.47.23.71.35-.33-.01-.67-.03-1-.04.1-.1.2-.2.3-.31h-.01Z"/>
      <path class="st13" d="M345.8,238.59c0,.16-.02.32-.02.48-.16-.03-.31-.06-.47-.08,0-.16.03-.31.06-.46.13.11.28.13.44.07h-.01Z"/>
      <path class="st12" d="M160.23,252.6c-.02-.17-.05-.35-.07-.52.17.11.33.23.5.34-.09.11-.19.21-.3.31l-.13-.13h0Z"/>
      <path class="st12" d="M319.07,177.16c-.19-.2-.38-.39-.57-.59.25-.07.49-.14.73-.21-.05.27-.11.53-.16.8Z"/>
      <path class="st12" d="M322.28,176.76c-.01.15-.07.29-.18.4.06-.13.12-.27.18-.4Z"/>
      <path class="st12" d="M321.8,177.81c-.15,0-.3-.02-.45-.03.16-.05.31-.04.45.03Z"/>
      <path class="st12" d="M356.01,237.9c-.56-.38-1.19-.7-1.64-1.18-.17-.18.07-.74.12-1.12.29.05.72,0,.85.17.41.54.71,1.17,1.06,1.77-.13.12-.26.25-.38.37h0Z"/>
      <path class="st1" d="M353.09,141.11c.74.16,1.48.33,2.22.49h-2.32.01l.09-.51v.02Z"/>
      <path class="st3" d="M307.42,171.86c-.26.2-.48.41-.51.39-.3-.26-.59-.53-.82-.84-.04-.06.2-.32.3-.48.3.28.6.55,1.03.94h0Z"/>
      <path class="st12" d="M246.98,166.11c-.28-.21-.55-.42-.83-.64.06-.05.11-.11.17-.16.22.27.44.54.65.8h0Z"/>
      <path class="st3" d="M311.1,177.95c-.07.25-.07.37-.11.38-.61.19-1.23.37-1.85.55-.04-.2-.18-.46-.11-.58.52-.76,1.2-.89,2.06-.36h0Z"/>
      <path class="st3" d="M337.47,146.8c-1.17-.93-1.03-1.99-.67-3.06.07-.21.5-.45.72-.42.2.04.5.45.48.66-.11.91-.33,1.81-.53,2.82h0Z"/>
      <path class="st3" d="M308.94,169.71c.85-.53,1.7-1.06,2.7-1.68.15,2.04-1.46,1.66-2.33,2.17-.12-.16-.25-.32-.37-.49h0Z"/>
      <path class="st9" d="M242.19,165.07c-.2,0-.4.03-.61.04-.63-.66-.24-1.28.09-1.9h.99c.93.9-.56,1.18-.47,1.86Z"/>
      <path class="st9" d="M352.99,141.61h2.32c-.29.4-.58.8-.87,1.2-.48-.4-.97-.79-1.45-1.19h0Z"/>
      <path class="st9" d="M354.17,143.05c-.91.94-1.73-.27-2.62-.11.91-.81,1.76-.28,2.62.11Z"/>
    </g>
  </g>
</svg>