<svg xmlns="http://www.w3.org/2000/svg" viewBox="0 0 59.53 59.53"><defs><style>.cls-1{fill:#1a3761;}.cls-2{fill:none;}</style></defs><g id="LOGO"><path class="cls-1" d="M0,0V59.53H59.53V0ZM27.81,27a.88.88,0,1,0,0,1.76h.08a1,1,0,0,1,1,.64,14.22,14.22,0,0,1,.27,3.71c0,4.49-1.6,7.47-2,7.86L25.5,42.42a.3.3,0,0,0-.08.17c0,.76.09,1.21-.62,1.94s-1.75,1.27-1.75,2.15a1.6,1.6,0,0,0,.49,1.17.12.12,0,0,1,0,.19L23,48.3a1,1,0,0,1-.91,0l-.3-.16a21.65,21.65,0,0,1-2.91-2c-11.67-9-9.47-27.78,3.84-33.88C27.33,10,32.2,9.82,37.5,11.49l6.59-1.16a2,2,0,0,1,1.89.89l-2.8,3.67c.4.94,3.23,4.75,3,5.81a18.51,18.51,0,0,0-.21,3c.56,2.92,1,8.84,2.91,11.27a6.05,6.05,0,0,1-3.16,2.88c-2.09.79-6.23,1.4-7-3.19a6.68,6.68,0,0,0-.91-2.27l-1.17-1.67a7.11,7.11,0,0,1-2.08-5.21c0-2.71.87-3.69,2.54-5.36.25-.25-.89-.51-1.81-.4a1.09,1.09,0,0,0-1.09-1H34a3,3,0,0,0-1.79-1.16,1.17,1.17,0,0,0-.72-2.09,1.16,1.16,0,0,0-1.16,1.17,1.19,1.19,0,0,0,.48.95,3,3,0,0,0-1.71,1.15,1.07,1.07,0,0,0-.25,0,1.09,1.09,0,0,0-1.09,1c-.92-.11-2.06.15-1.81.4,1.66,1.65,2.52,2.63,2.54,5.29a.75.75,0,0,0-.68.73c0,.41,0,.75,0,.75Z"/></g><g id="BOUNDING_BOX" data-name="BOUNDING BOX"><rect class="cls-2" width="59.53" height="59.53"/></g></svg>